<?xml version="1.0" encoding="utf-8"?>
<!-- Generator: Adobe Illustrator 19.1.0, SVG Export Plug-In . SVG Version: 6.00 Build 0)  -->
<svg version="1.1" id="Ebene_1" xmlns="http://www.w3.org/2000/svg" xmlns:xlink="http://www.w3.org/1999/xlink" x="0px" y="0px"
	 viewBox="-243 1130.9 48.9 48" style="enable-background:new -243 1130.9 48.9 48;" xml:space="preserve">
<style type="text/css">
	.st0{fill:#A6ABAE;}
	.st1{fill:#FFFFFF;}
</style>
<rect x="-237.3" y="1155.8" transform="matrix(-0.7071 -0.7071 0.7071 -0.7071 -1188.8208 1827.1116)" class="st0" width="42.6" height="8"/>
<polygon class="st0" points="-239.5,1145.2 -243,1153.8 -242.3,1154.4 -234.4,1151.5 -226.3,1143.4 -221.8,1136.9 -226.5,1132.2 "/>
<rect x="-232.5" y="1159" transform="matrix(-0.7071 -0.7071 0.7071 -0.7071 -1188.144 1828.5596)" class="st1" width="34.2" height="2.8"/>
<path class="st0" d="M-227.7,1131.7c0,0-0.7,0.7,0,1.4l5.8,5.8c0,0,0.7,0.7,1.4,0l0.4-0.4c0,0,0.7-0.7,0-1.4l-5.8-5.8
	c0,0-0.7-0.7-1.4,0L-227.7,1131.7z"/>
<rect x="-233.3" y="1153.8" transform="matrix(0.7071 -0.7071 0.7071 0.7071 -882.389 185.2839)" class="st0" width="31.5" height="8"/>
<path class="st0" d="M-196.5,1142.1c-1.6,1.6-3.6,2.4-5.6,2.4l-3.9-3.9l6-6c-2.8-0.8-5.9-0.1-8.1,2.1c-3.2,3.2-3.2,8.5,0,11.7
	c3.2,3.2,8.5,3.2,11.7,0c2.4-2.4,3-6,1.8-9C-195.1,1140.4-195.7,1141.3-196.5,1142.1z"/>
<path class="st1" d="M-202.1,1144.5c2-0.1,4.1-0.9,5.6-2.4c0.8-0.8,1.4-1.7,1.8-2.6c-0.4-1-1-1.9-1.8-2.7c-1-1-2.3-1.7-3.6-2.1l-6,6
	L-202.1,1144.5z"/>
<path class="st0" d="M-224.6,1164.8c-3.2-3.2-8.5-3.2-11.7,0c-2.6,2.6-3.1,6.5-1.5,9.6c0.4-0.8,0.9-1.5,1.5-2.1
	c1.4-1.4,3.1-2.1,4.8-2.4l3.7,3.7l-5,5c2.8,0.8,6,0.1,8.1-2.1C-221.4,1173.3-221.4,1168-224.6,1164.8z"/>
<path class="st1" d="M-231.5,1169.9c-1.8,0.2-3.5,1-4.8,2.4c-0.6,0.6-1.1,1.4-1.5,2.1c0.4,0.8,0.9,1.5,1.5,2.1c1,1,2.2,1.7,3.6,2.1
	l5-5L-231.5,1169.9z"/>
<rect x="-228.8" y="1155.1" transform="matrix(0.7071 -0.7071 0.7071 0.7071 -881.1487 185.783)" class="st1" width="25" height="2.8"/>
</svg>
