<svg style="display:none;">
    <!-- Logo -->
    <symbol id="logo" viewBox="0 0 520.6 171.3">
        
<path class="logoGrey" d="M7,104.3h12.6c1.5,0,2.5-0.3,2.5-1.7c0-1.6-1-1.9-2.5-1.9H7V104.3L7,104.3z M7,96h12.5c1.3,0,2.1-0.5,2.1-1.8
	c0-1.3-0.8-1.8-2.1-1.8H7V96L7,96z M0,86.9h20.3c5.6,0,8.3,1.5,8.3,6c0,3.9-1.4,4.7-3.4,5.3v0.1c3.1,0.4,4.2,2,4.2,5.5
	c0,5-3,6.1-7,6.1H0V86.9L0,86.9z"/>
<polygon class="logoGrey" points="40,86.9 65.1,86.9 65.1,92.2 47,92.2 47,95.9 64.2,95.9 64.2,100.6 47,100.6 47,104.3 65.5,104.3 
	65.5,109.8 40,109.8 40,86.9 "/>
<path class="logoGrey" d="M75.6,94.9c0-6.7,3.8-8.3,10.1-8.3H94c10,0,11.3,2.2,11.3,8.7h-7v-0.6c0-1.6-1.2-2.1-3.3-2.1h-7.7
	c-3.7,0-4.4,1.7-4.4,4.6v2.5c0,3.3,0.7,4.6,4,4.6h7.5c3.2,0,4.1-0.3,4.1-3.2h7v2.2c0,3.9-1.4,6.9-8.5,6.9H85.7
	c-6.3,0-10.1-1.6-10.1-8.3V94.9L75.6,94.9z"/>
<polygon class="logoGrey" points="116.1,86.9 123.1,86.9 123.1,95 138,95 138,86.9 145,86.9 145,109.8 138,109.8 138,101.1 123.1,101.1 
	123.1,109.8 116.1,109.8 116.1,86.9 "/>
<polygon class="logoGrey" points="156.1,86.9 163.1,86.9 163.1,95 178,95 178,86.9 185,86.9 185,109.8 178,109.8 178,101.1 163.1,101.1 
	163.1,109.8 156.1,109.8 156.1,86.9 "/>
<path class="logoGrey" d="M202.8,99.6c0,3.3,0.7,4.6,4,4.6h9c3.3,0,4-1.3,4-4.6v-2.5c0-2.9-0.7-4.6-4.4-4.6h-8.2c-3.7,0-4.4,1.7-4.4,4.6
	V99.6L202.8,99.6z M195.6,94.9c0-6.7,3.8-8.3,10.1-8.3H217c6.3,0,10.1,1.6,10.1,8.3v6.8c0,6.7-3.8,8.3-10.1,8.3h-11.3
	c-6.3,0-10.1-1.6-10.1-8.3V94.9L195.6,94.9z"/>
<polygon class="logoGrey" points="237.7,86.9 244.7,86.9 244.7,103.9 260.5,103.9 260.5,109.8 237.7,109.8 237.7,86.9 "/>
<path class="logoGrey" d="M277.1,103.9h12.5c3,0,4.2-0.9,4.2-4.1v-3.1c0-3.3-1.2-4.1-4.2-4.1h-12.5V103.9L277.1,103.9z M270.1,86.9h21.2
	c7,0,9.5,2.3,9.5,8v7c0,5.7-2.5,8-9.5,8h-21.2V86.9L270.1,86.9z"/>
<path class="logoRed" d="M314.2,114.6c-4.9,0-8.8,3.9-8.8,8.8c0,4.9,3.9,8.8,8.8,8.8c4.9,0,8.8-3.9,8.8-8.8
	C323.1,118.5,319.1,114.6,314.2,114.6"/>
<g>
	<path class="logoRed" d="M457,134.3h-5v2.5h5.3c0.9,0,1.2-0.3,1.2-1.1v-0.3C458.5,134.5,458,134.3,457,134.3"/>
	<path class="logoRed" d="M330,122.5c-0.4-7.9-6.6-14.3-14.5-14.9V0h-2.2v107.6c-8,0.5-14.4,6.9-14.8,14.9H127v2.2h171.5
		c0.6,7.8,7,13.9,14.8,14.4v32.2h2.2v-20.9h205.1v-27.8H330L330,122.5z M314.2,137c-7.5,0-13.6-6.1-13.6-13.6
		c0-7.5,6.1-13.6,13.6-13.6c7.5,0,13.6,6.1,13.6,13.6C327.8,130.9,321.7,137,314.2,137 M351.2,134.3h-4.5v7.8h-3.2v-7.8H339v-2.6
		h12.1V134.3L351.2,134.3z M358.8,142.1h-3.2v-10.4h3.2V142.1L358.8,142.1z M371.7,142.3h-3.9c-2.9,0-4.1-0.5-4.1-2.8v-0.7h3.2
		c0,1.1,0.5,1.2,1.4,1.2h3.9c0.7,0,1.4-0.1,1.4-0.9c0-0.9-0.4-1-4.5-1c-4.8,0-5.3-0.6-5.3-3.1c0-1.9,0.2-3.3,4.2-3.3h4.4
		c3.7,0,4,1.2,4,3.1v0.3h-3.2c0-0.8-0.1-1.1-1.5-1.1h-3.5c-0.7,0-1.2,0.2-1.2,0.8c0,0.9,0.4,0.9,3.8,0.9c5,0,6.1,0.3,6.1,3.3
		C376.9,141.8,375.9,142.3,371.7,142.3 M395,139.1c0,1.7-0.6,3.1-3.8,3.1h-5.1c-2.9,0-4.6-0.7-4.6-3.8v-3.1c0-3,1.7-3.8,4.6-3.8h3.7
		c4.5,0,5.1,1,5.1,3.9h-3.2v-0.3c0-0.8-0.5-1-1.5-1h-3.5c-1.7,0-2,0.8-2,2.1v1.1c0,1.5,0.3,2.1,1.8,2.1h3.4c1.4,0,1.9-0.1,1.9-1.4
		h3.2V139.1L395,139.1z M412.9,142.1h-3.2v-3.9H403v3.9h-3.2v-10.4h3.2v3.7h6.7v-3.7h3.2V142.1L412.9,142.1z M428.3,142.1h-10.3
		v-10.4h3.2v7.7h7.2V142.1L428.3,142.1z M444.1,142.1h-11.5v-10.4h11.4v2.4h-8.2v1.7h7.8v2.2h-7.8v1.7h8.4V142.1L444.1,142.1z
		 M461.6,135.5c0,1.4-0.3,2.2-1.8,2.6v0c0.9,0.2,1.7,0.6,1.7,2.3v1.8h-3.2v-1.2c0-1.1-0.3-1.4-1.3-1.4h-5v2.7h-3.2v-10.4h9.6
		c2.5,0,3.1,1.2,3.1,3.1V135.5L461.6,135.5z M478.1,142.1h-11.6v-10.4H478v2.4h-8.2v1.7h7.8v2.2h-7.8v1.7h8.4V142.1L478.1,142.1z
		 M486.3,142.1h-3.2v-10.4h3.2V142.1L486.3,142.1z"/>
</g>

    </symbol>
</svg>