<?xml version="1.0" encoding="utf-8"?>
<!-- Generator: Adobe Illustrator 19.1.0, SVG Export Plug-In . SVG Version: 6.00 Build 0)  -->
<svg version="1.1" id="Layer_1" xmlns="http://www.w3.org/2000/svg" xmlns:xlink="http://www.w3.org/1999/xlink" x="0px" y="0px"
	 viewBox="0 0 480 3" style="enable-background:new 0 0 480 3;" xml:space="preserve">
<style type="text/css">
	.st0{fill:#030405;}
</style>
<g>
	<circle class="st0" cx="1.5" cy="1.5" r="1.5"/>
	<circle class="st0" cx="7.4" cy="1.5" r="1.5"/>
	<circle class="st0" cx="13.3" cy="1.5" r="1.5"/>
	<circle class="st0" cx="19.2" cy="1.5" r="1.5"/>
	<circle class="st0" cx="25.1" cy="1.5" r="1.5"/>
	<circle class="st0" cx="30.9" cy="1.5" r="1.5"/>
	<circle class="st0" cx="36.8" cy="1.5" r="1.5"/>
	<circle class="st0" cx="42.7" cy="1.5" r="1.5"/>
	<circle class="st0" cx="48.6" cy="1.5" r="1.5"/>
	<circle class="st0" cx="54.5" cy="1.5" r="1.5"/>
	<circle class="st0" cx="60.4" cy="1.5" r="1.5"/>
	<circle class="st0" cx="66.3" cy="1.5" r="1.5"/>
	<circle class="st0" cx="72.2" cy="1.5" r="1.5"/>
	<circle class="st0" cx="78.1" cy="1.5" r="1.5"/>
	<circle class="st0" cx="83.9" cy="1.5" r="1.5"/>
	<circle class="st0" cx="89.8" cy="1.5" r="1.5"/>
	<circle class="st0" cx="95.7" cy="1.5" r="1.5"/>
	<circle class="st0" cx="101.6" cy="1.5" r="1.5"/>
	<circle class="st0" cx="107.5" cy="1.5" r="1.5"/>
	<circle class="st0" cx="113.4" cy="1.5" r="1.5"/>
	<circle class="st0" cx="119.3" cy="1.5" r="1.5"/>
	<circle class="st0" cx="125.2" cy="1.5" r="1.5"/>
	<circle class="st0" cx="131.1" cy="1.5" r="1.5"/>
	<circle class="st0" cx="136.9" cy="1.5" r="1.5"/>
	<circle class="st0" cx="142.8" cy="1.5" r="1.5"/>
	<circle class="st0" cx="148.7" cy="1.5" r="1.5"/>
	<circle class="st0" cx="154.6" cy="1.5" r="1.5"/>
	<circle class="st0" cx="160.5" cy="1.5" r="1.5"/>
	<circle class="st0" cx="166.4" cy="1.5" r="1.5"/>
	<circle class="st0" cx="172.3" cy="1.5" r="1.5"/>
	<circle class="st0" cx="178.2" cy="1.5" r="1.5"/>
	<circle class="st0" cx="184.1" cy="1.5" r="1.5"/>
	<circle class="st0" cx="189.9" cy="1.5" r="1.5"/>
	<circle class="st0" cx="195.8" cy="1.5" r="1.5"/>
	<circle class="st0" cx="201.7" cy="1.5" r="1.5"/>
	<circle class="st0" cx="207.6" cy="1.5" r="1.5"/>
	<circle class="st0" cx="213.5" cy="1.5" r="1.5"/>
	<circle class="st0" cx="219.4" cy="1.5" r="1.5"/>
	<circle class="st0" cx="225.3" cy="1.5" r="1.5"/>
	<circle class="st0" cx="231.2" cy="1.5" r="1.5"/>
	<circle class="st0" cx="237.1" cy="1.5" r="1.5"/>
	<circle class="st0" cx="242.9" cy="1.5" r="1.5"/>
	<circle class="st0" cx="248.8" cy="1.5" r="1.5"/>
	<circle class="st0" cx="254.7" cy="1.5" r="1.5"/>
	<circle class="st0" cx="260.6" cy="1.5" r="1.5"/>
	<circle class="st0" cx="266.5" cy="1.5" r="1.5"/>
	<circle class="st0" cx="272.4" cy="1.5" r="1.5"/>
	<circle class="st0" cx="278.3" cy="1.5" r="1.5"/>
	<circle class="st0" cx="284.2" cy="1.5" r="1.5"/>
	<circle class="st0" cx="290.1" cy="1.5" r="1.5"/>
	<circle class="st0" cx="295.9" cy="1.5" r="1.5"/>
	<circle class="st0" cx="301.8" cy="1.5" r="1.5"/>
	<circle class="st0" cx="307.7" cy="1.5" r="1.5"/>
	<circle class="st0" cx="313.6" cy="1.5" r="1.5"/>
	<circle class="st0" cx="319.5" cy="1.5" r="1.5"/>
	<circle class="st0" cx="325.4" cy="1.5" r="1.5"/>
	<circle class="st0" cx="331.3" cy="1.5" r="1.5"/>
	<circle class="st0" cx="337.2" cy="1.5" r="1.5"/>
	<circle class="st0" cx="343.1" cy="1.5" r="1.5"/>
	<circle class="st0" cx="348.9" cy="1.5" r="1.5"/>
	<circle class="st0" cx="354.8" cy="1.5" r="1.5"/>
	<circle class="st0" cx="360.7" cy="1.5" r="1.5"/>
	<circle class="st0" cx="366.6" cy="1.5" r="1.5"/>
	<circle class="st0" cx="372.5" cy="1.5" r="1.5"/>
	<circle class="st0" cx="378.4" cy="1.5" r="1.5"/>
	<circle class="st0" cx="384.3" cy="1.5" r="1.5"/>
	<circle class="st0" cx="390.2" cy="1.5" r="1.5"/>
	<circle class="st0" cx="396.1" cy="1.5" r="1.5"/>
	<circle class="st0" cx="401.9" cy="1.5" r="1.5"/>
	<circle class="st0" cx="407.8" cy="1.5" r="1.5"/>
	<circle class="st0" cx="413.7" cy="1.5" r="1.5"/>
	<circle class="st0" cx="419.6" cy="1.5" r="1.5"/>
	<circle class="st0" cx="425.5" cy="1.5" r="1.5"/>
	<circle class="st0" cx="431.4" cy="1.5" r="1.5"/>
	<circle class="st0" cx="437.3" cy="1.5" r="1.5"/>
	<circle class="st0" cx="443.2" cy="1.5" r="1.5"/>
	<circle class="st0" cx="449.1" cy="1.5" r="1.5"/>
	<circle class="st0" cx="454.9" cy="1.5" r="1.5"/>
	<circle class="st0" cx="460.8" cy="1.5" r="1.5"/>
	<circle class="st0" cx="466.7" cy="1.5" r="1.5"/>
	<circle class="st0" cx="472.6" cy="1.5" r="1.5"/>
	<circle class="st0" cx="478.5" cy="1.5" r="1.5"/>
</g>
</svg>
