<?xml version="1.0" encoding="utf-8"?>
<!-- Generator: Adobe Illustrator 19.1.0, SVG Export Plug-In . SVG Version: 6.00 Build 0)  -->
<svg version="1.1" id="Ebene_1" xmlns="http://www.w3.org/2000/svg" xmlns:xlink="http://www.w3.org/1999/xlink" x="0px" y="0px"
	 viewBox="-244 1119.6 51 60.2" style="enable-background:new -244 1119.6 51 60.2;" xml:space="preserve">
<style type="text/css">
	.st0{fill:#A6ABAE;}
	.st1{fill:#FFFFFF;}
</style>
<path class="st0" d="M-229.7,1136.1v-1c0-10.1,9.4-10.5,10.5-10.5h2.4c10.1,0,10.5,9.4,10.5,10.5v1c0,1.1-0.1,2-0.3,2.9h5.1
	c0.1-0.9,0.2-1.9,0.2-2.9v-1c0-5.4-3.2-15.5-15.5-15.5h-2.4c-5.4,0-15.5,3.2-15.5,15.5v1c0,0.9,0.1,1.9,0.3,2.9h5.1
	C-229.7,1137.6-229.7,1136.5-229.7,1136.1z"/>
<polygon class="st0" points="-201.5,1139 -206.6,1139 -229.3,1139 -234.4,1139 -244,1139 -244,1179.8 -193,1179.8 -193,1139 "/>
<rect x="-238" y="1145" class="st1" width="39.5" height="30"/>
<path class="st0" d="M-212.4,1156.4c0-3.2-2.6-5.8-5.8-5.8c-3.2,0-5.8,2.6-5.8,5.8c0,2.3,1.3,4.2,3.2,5.2v9.7h5.1v-9.7
	C-213.8,1160.7-212.4,1158.8-212.4,1156.4z"/>
</svg>
