<?xml version="1.0" encoding="utf-8"?>
<!-- Generator: Adobe Illustrator 19.1.0, SVG Export Plug-In . SVG Version: 6.00 Build 0)  -->
<svg version="1.1" id="Ebene_1" xmlns="http://www.w3.org/2000/svg" xmlns:xlink="http://www.w3.org/1999/xlink" x="0px" y="0px"
	 viewBox="-1269.6 2161.8 10.4 18.3" style="enable-background:new -1269.6 2161.8 10.4 18.3;" xml:space="preserve">
<style type="text/css">
	.st0{fill:#6D3332;}
</style>
<path class="st0" d="M-1259.5,2171.6c-0.4,0.4-1,0.4-1.4,0l0,0c-0.4-0.4-0.4-1,0-1.4l0,0c0.4-0.4,1-0.4,1.4,0l0,0
	c0.2,0.2,0.3,0.5,0.3,0.7l0,0C-1259.2,2171.2-1259.3,2171.4-1259.5,2171.6z"/>
<path class="st0" d="M-1262.2,2168.9c-0.4,0.4-1,0.4-1.4,0l0,0c-0.4-0.4-0.4-1,0-1.4l0,0c0.4-0.4,1-0.4,1.4,0l0,0
	c0.2,0.2,0.3,0.5,0.3,0.7l0,0C-1261.8,2168.4-1262,2168.8-1262.2,2168.9z"/>
<path class="st0" d="M-1265,2166.1c-0.4,0.4-1,0.4-1.4,0l0,0c-0.4-0.4-0.4-1,0-1.4l0,0c0.4-0.4,1-0.4,1.4,0l0,0
	c0.2,0.2,0.3,0.5,0.3,0.7l0,0C-1264.7,2165.8-1264.8,2165.9-1265,2166.1z"/>
<path class="st0" d="M-1267.8,2163.4c-0.4,0.4-1,0.4-1.4,0l0,0c-0.4-0.4-0.4-1,0-1.4l0,0c0.4-0.4,1-0.4,1.4,0l0,0
	c0.2,0.2,0.3,0.5,0.3,0.7l0,0C-1267.5,2162.9-1267.6,2163.2-1267.8,2163.4z"/>
<path class="st0" d="M-1262.2,2174.4c-0.4,0.4-1,0.4-1.4,0l0,0c-0.4-0.4-0.4-1,0-1.4l0,0c0.4-0.4,1-0.4,1.4,0l0,0
	c0.2,0.2,0.3,0.4,0.3,0.7l0,0C-1261.8,2173.9-1262,2174.1-1262.2,2174.4z"/>
<path class="st0" d="M-1265,2177.1c-0.4,0.4-1,0.4-1.4,0l0,0c-0.4-0.4-0.4-1,0-1.4l0,0c0.4-0.4,1-0.4,1.4,0l0,0
	c0.2,0.2,0.3,0.5,0.3,0.7l0,0C-1264.7,2176.6-1264.8,2176.9-1265,2177.1z"/>
<path class="st0" d="M-1267.8,2179.8c-0.4,0.4-1,0.4-1.4,0l0,0c-0.4-0.4-0.4-1,0-1.4l0,0c0.4-0.4,1-0.4,1.4,0l0,0
	c0.2,0.2,0.3,0.4,0.3,0.7l0,0C-1267.5,2179.4-1267.6,2179.6-1267.8,2179.8z"/>
</svg>
