<svg style="display:none;">
    <!-- Bauschreinerei -->
    <symbol id="bauschreinerei" viewBox="-243 1130.9 48.9 48">
        <rect x="-237.3" y="1155.8" transform="matrix(-0.7071 -0.7071 0.7071 -0.7071 -1188.8208 1827.1116)" class="colGrey" width="42.6" height="8"/>
        <polygon class="colGrey" points="-239.5,1145.2 -243,1153.8 -242.3,1154.4 -234.4,1151.5 -226.3,1143.4 -221.8,1136.9 -226.5,1132.2 "/>
        <rect x="-232.5" y="1159" transform="matrix(-0.7071 -0.7071 0.7071 -0.7071 -1188.144 1828.5596)" class="colBG" width="34.2" height="2.8"/>
        <path class="colGrey" d="M-227.7,1131.7c0,0-0.7,0.7,0,1.4l5.8,5.8c0,0,0.7,0.7,1.4,0l0.4-0.4c0,0,0.7-0.7,0-1.4l-5.8-5.8
	c0,0-0.7-0.7-1.4,0L-227.7,1131.7z"/>
        <rect x="-233.3" y="1153.8" transform="matrix(0.7071 -0.7071 0.7071 0.7071 -882.389 185.2839)" class="colGrey" width="31.5" height="8"/>
        <path class="colGrey" d="M-196.5,1142.1c-1.6,1.6-3.6,2.4-5.6,2.4l-3.9-3.9l6-6c-2.8-0.8-5.9-0.1-8.1,2.1c-3.2,3.2-3.2,8.5,0,11.7
	c3.2,3.2,8.5,3.2,11.7,0c2.4-2.4,3-6,1.8-9C-195.1,1140.4-195.7,1141.3-196.5,1142.1z"/>
        <path class="colBG" d="M-202.1,1144.5c2-0.1,4.1-0.9,5.6-2.4c0.8-0.8,1.4-1.7,1.8-2.6c-0.4-1-1-1.9-1.8-2.7c-1-1-2.3-1.7-3.6-2.1l-6,6
	L-202.1,1144.5z"/>
        <path class="colGrey" d="M-224.6,1164.8c-3.2-3.2-8.5-3.2-11.7,0c-2.6,2.6-3.1,6.5-1.5,9.6c0.4-0.8,0.9-1.5,1.5-2.1
	c1.4-1.4,3.1-2.1,4.8-2.4l3.7,3.7l-5,5c2.8,0.8,6,0.1,8.1-2.1C-221.4,1173.3-221.4,1168-224.6,1164.8z"/>
        <path class="colBG" d="M-231.5,1169.9c-1.8,0.2-3.5,1-4.8,2.4c-0.6,0.6-1.1,1.4-1.5,2.1c0.4,0.8,0.9,1.5,1.5,2.1c1,1,2.2,1.7,3.6,2.1
	l5-5L-231.5,1169.9z"/>
        <rect x="-228.8" y="1155.1" transform="matrix(0.7071 -0.7071 0.7071 0.7071 -881.1487 185.783)" class="colBG" width="25" height="2.8"/>

    </symbol>
    <!-- Einbruchschutz -->
    <symbol id="einbruchschutz" viewBox="-244 1119.6 51 60.2">
        <path class="colGrey" d="M-229.7,1136.1v-1c0-10.1,9.4-10.5,10.5-10.5h2.4c10.1,0,10.5,9.4,10.5,10.5v1c0,1.1-0.1,2-0.3,2.9h5.1
	c0.1-0.9,0.2-1.9,0.2-2.9v-1c0-5.4-3.2-15.5-15.5-15.5h-2.4c-5.4,0-15.5,3.2-15.5,15.5v1c0,0.9,0.1,1.9,0.3,2.9h5.1
	C-229.7,1137.6-229.7,1136.5-229.7,1136.1z"/>
        <polygon class="colGrey" points="-201.5,1139 -206.6,1139 -229.3,1139 -234.4,1139 -244,1139 -244,1179.8 -193,1179.8 -193,1139 "/>
        <rect x="-238" y="1145" class="colBG" width="39.5" height="30"/>
        <path class="colGrey" d="M-212.4,1156.4c0-3.2-2.6-5.8-5.8-5.8c-3.2,0-5.8,2.6-5.8,5.8c0,2.3,1.3,4.2,3.2,5.2v9.7h5.1v-9.7
	C-213.8,1160.7-212.4,1158.8-212.4,1156.4z"/>
    </symbol>
    <!-- Innenausbau -->
    <symbol id="innenausbau" viewBox="-244 1139.4 66.4 40.8">
        <rect x="-244" y="1139.4" class="colGrey" width="66.4" height="40.8"/>
        <rect x="-224" y="1143.8" class="colBG" width="26.2" height="11.1"/>
        <rect x="-224" y="1160.1" class="colBG" width="26.2" height="15.1"/>
        <rect x="-192.9" y="1143.8" class="colBG" width="11" height="31.1"/>
        <rect x="-239.1" y="1143.1" class="colBG" width="11" height="7.7"/>
        <rect x="-239.1" y="1155" class="colBG" width="11" height="7.7"/>
        <rect x="-239.1" y="1167.4" class="colBG" width="11" height="7.7"/>
    </symbol>
    <!-- Reparaturen -->
    <symbol id="reparaturen" viewBox="-244 1137.5 52.7 42.3">
        <rect x="-244" y="1137.5" class="colGrey" width="52.7" height="42.3"/>
        <polygon class="colBG" points="-239.7,1142.6 -239.7,1175.9 -203.1,1175.9 -212.8,1166.4 -204.4,1158.4 -212.4,1150.1 -203.1,1142.6 
	"/>
        <polygon class="colBG" points="-205.6,1151.4 -198.9,1158.6 -206.7,1166.1 -196.8,1175.9 -196.8,1142.6 "/>
    </symbol>
    <!-- Insektenschutz -->
    <symbol id="insektenschutz" viewBox="-243 1127.1 53.4 57.9">
        <g>
            <g>
                <path class="colGrey" d="M-216.5,1185c9.4,0,17-11,17-24.5s-7.6-24.5-17-24.5s-17,11-17,24.5C-233.5,1174.1-225.9,1185-216.5,1185"/>
            </g>
        </g>
        <g>
            <g>
                <path class="colBG" d="M-205.3,1142.1c-2.6,2.7-6.8,4.5-11.6,4.5c-4.5,0-8.5-1.6-11.1-4c-1,1.3-1.8,2.7-2.6,4.3
			c2.9,2.4,6.8,4.1,11.2,4.5v33.3c0.9,0.2,1.9,0.4,2.9,0.4c0.7,0,1.4-0.1,2.1-0.2v-33.5c4.7-0.5,8.8-2.3,11.8-5
			C-203.4,1144.8-204.3,1143.4-205.3,1142.1z"/>
            </g>
        </g>
        <g>
            <g>
                <g>
                    <path class="colGrey" d="M-221.6,1133.8c0.8-1,1.1-2.3,0.7-3.6c-0.6-2.2-2.9-3.5-5.1-2.9s-3.5,2.9-2.9,5.1c0.4,1.2,1.3,2.2,2.4,2.7
				l1.8,7l4.8-1.3L-221.6,1133.8z"/>
                </g>
            </g>
            <g>
                <g>
                    <path class="colGrey" d="M-208.3,1127.2c-2.2-0.6-4.5,0.7-5.1,2.9c-0.4,1.3,0,2.6,0.7,3.6l-1.9,7.1l4.8,1.3l1.9-7
				c1.2-0.5,2.1-1.4,2.5-2.7C-204.8,1130.1-206.1,1127.8-208.3,1127.2z"/>
                </g>
            </g>
        </g>
        <g>
            <path class="colGrey" d="M-226.8,1165.3c0-1.4-1.1-2.5-2.5-2.5h-11.2c-1.4,0-2.5,1.1-2.5,2.5s1.1,2.5,2.5,2.5h11.2
		C-227.9,1167.8-226.8,1166.7-226.8,1165.3z"/>
            <path class="colGrey" d="M-227.8,1172.4l-10.5,3.9c-1.3,0.5-1.9,1.9-1.5,3.2c0.4,1,1.3,1.6,2.3,1.6c0.3,0,0.6-0.1,0.9-0.2l10.5-3.9
		c1.3-0.5,1.9-1.9,1.5-3.2C-225,1172.6-226.5,1171.9-227.8,1172.4z"/>
            <path class="colGrey" d="M-239.7,1154.2l10.5,3.9c0.3,0.1,0.6,0.2,0.9,0.2c1,0,2-0.6,2.3-1.6c0.5-1.3-0.2-2.7-1.5-3.2l-10.5-3.9
		c-1.3-0.5-2.7,0.2-3.2,1.5C-241.6,1152.3-241,1153.7-239.7,1154.2z"/>
            <path class="colGrey" d="M-192.1,1162.9h-11.2c-1.4,0-2.5,1.1-2.5,2.5s1.1,2.5,2.5,2.5h11.2c1.4,0,2.5-1.1,2.5-2.5
		S-190.7,1162.9-192.1,1162.9z"/>
            <path class="colGrey" d="M-194.3,1176.3l-10.5-3.9c-1.3-0.5-2.7,0.2-3.2,1.5c-0.5,1.3,0.2,2.7,1.5,3.2l10.5,3.9
		c0.3,0.1,0.6,0.2,0.9,0.2c1,0,2-0.6,2.3-1.6C-192.4,1178.2-193,1176.8-194.3,1176.3z"/>
            <path class="colGrey" d="M-204.3,1158.2c0.3,0,0.6-0.1,0.9-0.2l10.5-3.9c1.3-0.5,1.9-1.9,1.5-3.2c-0.5-1.3-1.9-1.9-3.2-1.5l-10.5,3.9
		c-1.3,0.5-1.9,1.9-1.5,3.2C-206.3,1157.6-205.3,1158.2-204.3,1158.2z"/>
        </g>
    </symbol>
</svg>