<?xml version="1.0" encoding="utf-8"?>
<!-- Generator: Adobe Illustrator 19.1.0, SVG Export Plug-In . SVG Version: 6.00 Build 0)  -->
<svg version="1.1" id="Ebene_1" xmlns="http://www.w3.org/2000/svg" xmlns:xlink="http://www.w3.org/1999/xlink" x="0px" y="0px"
	 viewBox="-243 1127.1 53.4 57.9" style="enable-background:new -243 1127.1 53.4 57.9;" xml:space="preserve">
<style type="text/css">
	.st0{fill:#A6ABAE;}
	.st1{fill:#FFFFFF;}
</style>
<g>
	<g>
		<path class="st0" d="M-216.5,1185c9.4,0,17-11,17-24.5s-7.6-24.5-17-24.5s-17,11-17,24.5C-233.5,1174.1-225.9,1185-216.5,1185"/>
	</g>
</g>
<g>
	<g>
		<path class="st1" d="M-205.3,1142.1c-2.6,2.7-6.8,4.5-11.6,4.5c-4.5,0-8.5-1.6-11.1-4c-1,1.3-1.8,2.7-2.6,4.3
			c2.9,2.4,6.8,4.1,11.2,4.5v33.3c0.9,0.2,1.9,0.4,2.9,0.4c0.7,0,1.4-0.1,2.1-0.2v-33.5c4.7-0.5,8.8-2.3,11.8-5
			C-203.4,1144.8-204.3,1143.4-205.3,1142.1z"/>
	</g>
</g>
<g>
	<g>
		<g>
			<path class="st0" d="M-221.6,1133.8c0.8-1,1.1-2.3,0.7-3.6c-0.6-2.2-2.9-3.5-5.1-2.9s-3.5,2.9-2.9,5.1c0.4,1.2,1.3,2.2,2.4,2.7
				l1.8,7l4.8-1.3L-221.6,1133.8z"/>
		</g>
	</g>
	<g>
		<g>
			<path class="st0" d="M-208.3,1127.2c-2.2-0.6-4.5,0.7-5.1,2.9c-0.4,1.3,0,2.6,0.7,3.6l-1.9,7.1l4.8,1.3l1.9-7
				c1.2-0.5,2.1-1.4,2.5-2.7C-204.8,1130.1-206.1,1127.8-208.3,1127.2z"/>
		</g>
	</g>
</g>
<g>
	<path class="st0" d="M-226.8,1165.3c0-1.4-1.1-2.5-2.5-2.5h-11.2c-1.4,0-2.5,1.1-2.5,2.5s1.1,2.5,2.5,2.5h11.2
		C-227.9,1167.8-226.8,1166.7-226.8,1165.3z"/>
	<path class="st0" d="M-227.8,1172.4l-10.5,3.9c-1.3,0.5-1.9,1.9-1.5,3.2c0.4,1,1.3,1.6,2.3,1.6c0.3,0,0.6-0.1,0.9-0.2l10.5-3.9
		c1.3-0.5,1.9-1.9,1.5-3.2C-225,1172.6-226.5,1171.9-227.8,1172.4z"/>
	<path class="st0" d="M-239.7,1154.2l10.5,3.9c0.3,0.1,0.6,0.2,0.9,0.2c1,0,2-0.6,2.3-1.6c0.5-1.3-0.2-2.7-1.5-3.2l-10.5-3.9
		c-1.3-0.5-2.7,0.2-3.2,1.5C-241.6,1152.3-241,1153.7-239.7,1154.2z"/>
	<path class="st0" d="M-192.1,1162.9h-11.2c-1.4,0-2.5,1.1-2.5,2.5s1.1,2.5,2.5,2.5h11.2c1.4,0,2.5-1.1,2.5-2.5
		S-190.7,1162.9-192.1,1162.9z"/>
	<path class="st0" d="M-194.3,1176.3l-10.5-3.9c-1.3-0.5-2.7,0.2-3.2,1.5c-0.5,1.3,0.2,2.7,1.5,3.2l10.5,3.9
		c0.3,0.1,0.6,0.2,0.9,0.2c1,0,2-0.6,2.3-1.6C-192.4,1178.2-193,1176.8-194.3,1176.3z"/>
	<path class="st0" d="M-204.3,1158.2c0.3,0,0.6-0.1,0.9-0.2l10.5-3.9c1.3-0.5,1.9-1.9,1.5-3.2c-0.5-1.3-1.9-1.9-3.2-1.5l-10.5,3.9
		c-1.3,0.5-1.9,1.9-1.5,3.2C-206.3,1157.6-205.3,1158.2-204.3,1158.2z"/>
</g>
</svg>
