<?xml version="1.0" encoding="utf-8"?>
<!-- Generator: Adobe Illustrator 19.1.0, SVG Export Plug-In . SVG Version: 6.00 Build 0)  -->
<svg version="1.1" id="Ebene_1" xmlns="http://www.w3.org/2000/svg" xmlns:xlink="http://www.w3.org/1999/xlink" x="0px" y="0px"
	 viewBox="-851 989.7 208.1 3" style="enable-background:new -851 989.7 208.1 3;" xml:space="preserve">
<style type="text/css">
	.st0{fill:#FFFFFF;}
</style>
<circle class="st0" cx="-849.5" cy="991.2" r="1.5"/>
<circle class="st0" cx="-843.5" cy="991.2" r="1.5"/>
<circle class="st0" cx="-837.4" cy="991.2" r="1.5"/>
<circle class="st0" cx="-831.4" cy="991.2" r="1.5"/>
<circle class="st0" cx="-825.4" cy="991.2" r="1.5"/>
<circle class="st0" cx="-819.3" cy="991.2" r="1.5"/>
<circle class="st0" cx="-813.3" cy="991.2" r="1.5"/>
<circle class="st0" cx="-807.3" cy="991.2" r="1.5"/>
<circle class="st0" cx="-801.2" cy="991.2" r="1.5"/>
<circle class="st0" cx="-795.2" cy="991.2" r="1.5"/>
<circle class="st0" cx="-789.2" cy="991.2" r="1.5"/>
<circle class="st0" cx="-783.1" cy="991.2" r="1.5"/>
<circle class="st0" cx="-777.1" cy="991.2" r="1.5"/>
<circle class="st0" cx="-771.1" cy="991.2" r="1.5"/>
<circle class="st0" cx="-765" cy="991.2" r="1.5"/>
<circle class="st0" cx="-759" cy="991.2" r="1.5"/>
<circle class="st0" cx="-753" cy="991.2" r="1.5"/>
<circle class="st0" cx="-746.9" cy="991.2" r="1.5"/>
<circle class="st0" cx="-740.9" cy="991.2" r="1.5"/>
<circle class="st0" cx="-734.9" cy="991.2" r="1.5"/>
<circle class="st0" cx="-728.9" cy="991.2" r="1.5"/>
<circle class="st0" cx="-722.8" cy="991.2" r="1.5"/>
<circle class="st0" cx="-716.8" cy="991.2" r="1.5"/>
<circle class="st0" cx="-710.8" cy="991.2" r="1.5"/>
<circle class="st0" cx="-704.7" cy="991.2" r="1.5"/>
<circle class="st0" cx="-698.7" cy="991.2" r="1.5"/>
<circle class="st0" cx="-692.7" cy="991.2" r="1.5"/>
<circle class="st0" cx="-686.6" cy="991.2" r="1.5"/>
<circle class="st0" cx="-680.6" cy="991.2" r="1.5"/>
<circle class="st0" cx="-674.6" cy="991.2" r="1.5"/>
<circle class="st0" cx="-668.5" cy="991.2" r="1.5"/>
<circle class="st0" cx="-662.5" cy="991.2" r="1.5"/>
<circle class="st0" cx="-656.5" cy="991.2" r="1.5"/>
<circle class="st0" cx="-650.4" cy="991.2" r="1.5"/>
<circle class="st0" cx="-644.4" cy="991.2" r="1.5"/>
</svg>
