<svg id="Ebene_1" data-name="Ebene 1" xmlns="http://www.w3.org/2000/svg" viewBox="0 0 498.55 120.1"><defs><style>.cls-1{fill:#535a60;}.cls-2{fill:#623636;}.cls-3{fill:#4d575e;}</style></defs><title>logo</title><path class="cls-1" d="M138.45,73.13h8.83c1.05,0,1.75-.21,1.75-1.19s-0.7-1.33-1.75-1.33h-8.83v2.52h0Zm0-5.82h8.76a1.28,1.28,0,1,0,0-2.52h-8.76v2.52h0Zm-4.91-6.38h14.23c3.93,0,5.82,1.05,5.82,4.21,0,2.73-1,3.3-2.38,3.72v0.07c2.17,0.28,2.94,1.4,2.94,3.86,0,3.51-2.1,4.28-4.91,4.28h-15.7V60.93h0Z"/><polygon class="cls-1" points="161.59 60.93 179.19 60.93 179.19 64.64 166.5 64.64 166.5 67.24 178.56 67.24 178.56 70.53 166.5 70.53 166.5 73.13 179.47 73.13 179.47 76.98 161.59 76.98 161.59 60.93"/><path class="cls-1" d="M186.55,66.54c0-4.7,2.66-5.82,7.08-5.82h5.82c7,0,7.92,1.54,7.92,6.1h-4.91V66.4c0-1.12-.84-1.47-2.31-1.47h-5.4c-2.59,0-3.08,1.19-3.08,3.23V69.9c0,2.31.49,3.23,2.8,3.23h5.26c2.24,0,2.87-.21,2.87-2.24h4.91v1.54c0,2.73-1,4.84-6,4.84h-7.92c-4.42,0-7.08-1.12-7.08-5.82V66.54h0Z"/><polygon class="cls-1" points="214.95 60.93 219.85 60.93 219.85 66.61 230.3 66.61 230.3 60.93 235.21 60.93 235.21 76.98 230.3 76.98 230.3 70.88 219.85 70.88 219.85 76.98 214.95 76.98 214.95 60.93"/><polygon class="cls-1" points="242.99 60.93 247.9 60.93 247.9 66.61 258.35 66.61 258.35 60.93 263.25 60.93 263.25 76.98 258.35 76.98 258.35 70.88 247.9 70.88 247.9 76.98 242.99 76.98 242.99 60.93"/><path class="cls-1" d="M275.73,69.83c0,2.31.49,3.23,2.8,3.23h6.31c2.31,0,2.8-.91,2.8-3.23V68.08c0-2-.49-3.23-3.08-3.23h-5.75c-2.59,0-3.08,1.19-3.08,3.23v1.75h0Zm-5-3.3c0-4.7,2.66-5.82,7.08-5.82h7.92c4.42,0,7.08,1.12,7.08,5.82V71.3c0,4.7-2.66,5.82-7.08,5.82h-7.92c-4.42,0-7.08-1.12-7.08-5.82V66.54h0Z"/><polygon class="cls-1" points="300.2 60.93 305.11 60.93 305.11 72.85 316.19 72.85 316.19 76.98 300.2 76.98 300.2 60.93"/><path class="cls-1" d="M327.82,72.85h8.76c2.1,0,2.94-.63,2.94-2.87V67.8c0-2.31-.84-2.87-2.94-2.87h-8.76v7.92h0Zm-4.91-11.92h14.86c4.91,0,6.66,1.61,6.66,5.61v4.91c0,4-1.75,5.61-6.66,5.61H322.92V60.93h0Z"/><path class="cls-2" d="M353.84,80.35A6.17,6.17,0,1,0,360,86.52a6.13,6.13,0,0,0-6.17-6.17"/><path class="cls-2" d="M454,94.16h-3.51v1.75h3.72a0.67,0.67,0,0,0,.84-0.77V94.93c0-.63-0.35-0.77-1.05-0.77"/><path class="cls-2" d="M364.91,85.89a11,11,0,0,0-10.17-10.45V0h-1.54V75.44a11.06,11.06,0,0,0-10.38,10.45H222.59v1.54H342.83a11.07,11.07,0,0,0,10.38,10.1V120.1h1.54V105.45h143.8V86H364.91V85.89ZM353.84,96.05a9.54,9.54,0,1,1,9.54-9.54,9.55,9.55,0,0,1-9.54,9.54m25.94-1.89h-3.16v5.47h-2.24V94.16h-3.16V92.34h8.48v1.82h0.07Zm5.33,5.47h-2.24V92.34h2.24v7.29h0Zm9,0.14h-2.73c-2,0-2.87-.35-2.87-2V97.31h2.24c0,0.77.35,0.84,1,.84h2.73c0.49,0,1-.07,1-0.63s-0.28-.7-3.16-0.7c-3.37,0-3.72-.42-3.72-2.17,0-1.33.14-2.31,2.94-2.31h3.08c2.59,0,2.8.84,2.8,2.17v0.21H395.2c0-.56-0.07-0.77-1.05-0.77H391.7c-0.49,0-.84.14-0.84,0.56,0,0.63.28,0.63,2.66,0.63,3.51,0,4.28.21,4.28,2.31s-0.7,2.31-3.65,2.31m16.34-2.24c0,1.19-.42,2.17-2.66,2.17h-3.58c-2,0-3.23-.49-3.23-2.66V94.86c0-2.1,1.19-2.66,3.23-2.66h2.59c3.16,0,3.58.7,3.58,2.73h-2.24V94.72c0-.56-0.35-0.7-1.05-0.7h-2.45a1.2,1.2,0,0,0-1.4,1.47v0.77c0,1.05.21,1.47,1.26,1.47h2.38c1,0,1.33-.07,1.33-1h2.24v0.77h0ZM423,99.63h-2.24V96.89h-4.7v2.73h-2.24V92.34h2.24v2.59h4.7V92.34H423v7.29h0Zm10.8,0h-7.22V92.34h2.24v5.4h5v1.89h-0.07Zm11.08,0h-8.06V92.34h8V94h-5.75v1.19h5.47v1.54h-5.47v1.19H445v1.68h-0.07ZM457.18,95a1.53,1.53,0,0,1-1.26,1.82h0a1.37,1.37,0,0,1,1.19,1.61V99.7h-2.24V98.86c0-.77-0.21-1-0.91-1h-3.51v1.89h-2.24V92.48h6.73c1.75,0,2.17.84,2.17,2.17V95h0.07Zm11.57,4.63h-8.13V92.34h8.06V94h-5.75v1.19h5.47v1.54h-5.47v1.19h5.89v1.68h-0.07Zm5.75,0h-2.24V92.34h2.24v7.29h0Z"/><path class="cls-3" d="M1.31,102.89H2.52v9.54H1.31v-9.54Z"/><path class="cls-3" d="M5.42,102.89H6.67l3.45,6,1,2h0.06c-0.06-1-.15-2-0.15-3v-4.93h1.15v9.54H11l-3.46-6-1-2H6.41c0.07,1,.16,2,0.16,3v5H5.42v-9.54Z"/><path class="cls-3" d="M15.12,102.89H17.5c2.94,0,4.51,1.7,4.51,4.73s-1.57,4.81-4.45,4.81H15.12v-9.54Zm2.3,8.55c2.22,0,3.34-1.41,3.34-3.82s-1.12-3.74-3.34-3.74H16.32v7.56h1.09Z"/><path class="cls-3" d="M24.35,102.89h1.21v9.54H24.35v-9.54Z"/><path class="cls-3" d="M27.15,102.89h1.29L30,108c0.35,1.13.57,2,.93,3.16H31c0.35-1.12.58-2,.92-3.16l1.53-5.15h1.24l-3,9.54H30.21Z"/><path class="cls-3" d="M36.22,102.89h1.21v9.54H36.22v-9.54Z"/><path class="cls-3" d="M40.34,102.89h2.38c2.94,0,4.51,1.7,4.51,4.73s-1.57,4.81-4.45,4.81H40.34v-9.54Zm2.3,8.55c2.22,0,3.34-1.41,3.34-3.82s-1.12-3.74-3.34-3.74H41.54v7.56h1.09Z"/><path class="cls-3" d="M49.52,108.49v-5.6h1.21v5.63c0,2.3,1,3,2.22,3s2.25-.73,2.25-3v-5.63h1.16v5.6c0,3.07-1.47,4.12-3.42,4.12S49.52,111.56,49.52,108.49Z"/><path class="cls-3" d="M59.23,102.89h5.5v1H60.44v3h3.62v1H60.44v3.46h4.44v1H59.23v-9.54Z"/><path class="cls-3" d="M67.17,102.89h1.21v8.51h4.17v1H67.17v-9.54Z"/><path class="cls-3" d="M74.51,102.89h1.21v8.51h4.17v1H74.51v-9.54Z"/><path class="cls-3" d="M81.87,102.89h5.5v1H83.07v3h3.62v1H83.07v3.46h4.44v1H81.87v-9.54Z"/><path class="cls-3" d="M89.8,102.89h3c1.95,0,3.34.7,3.34,2.68a2.6,2.6,0,0,1-2.15,2.7l2.43,4.16H95l-2.3-4H91v4H89.8v-9.54Zm2.81,4.52c1.48,0,2.31-.61,2.31-1.85s-0.83-1.7-2.31-1.7H91v3.55h1.6Z"/><path class="cls-3" d="M101.56,102.89h1.21v9.54h-1.21v-9.54Z"/><path class="cls-3" d="M105.68,102.89h1.25l3.45,6,1,2h0.06c-0.06-1-.15-2-0.15-3v-4.93h1.15v9.54h-1.25l-3.46-6-1-2h-0.06c0.07,1,.16,2,0.16,3v5h-1.15v-9.54Z"/><path class="cls-3" d="M115.37,102.89h1.25l3.45,6,1,2h0.06c-0.06-1-.15-2-0.15-3v-4.93h1.15v9.54h-1.25l-3.46-6-1-2h-0.06c0.07,1,.16,2,0.16,3v5h-1.15v-9.54Z"/><path class="cls-3" d="M125.07,102.89h5.5v1h-4.29v3h3.62v1h-3.62v3.46h4.44v1h-5.64v-9.54Z"/><path class="cls-3" d="M133,102.89h1.25l3.45,6,1,2h0.06c-0.06-1-.15-2-0.15-3v-4.93h1.15v9.54h-1.25l-3.46-6-1-2H134c0.07,1,.16,2,0.16,3v5H133v-9.54Z"/><path class="cls-3" d="M144.66,102.89H146l3.23,9.54H148l-0.9-2.91h-3.48l-0.92,2.91h-1.24Zm-0.77,5.66h2.86l-0.45-1.45c-0.35-1.06-.65-2.11-1-3.21h-0.06c-0.29,1.11-.6,2.15-0.94,3.21Z"/><path class="cls-3" d="M150.64,108.49v-5.6h1.21v5.63c0,2.3,1,3,2.22,3s2.25-.73,2.25-3v-5.63h1.16v5.6c0,3.07-1.47,4.12-3.42,4.12S150.64,111.56,150.64,108.49Z"/><path class="cls-3" d="M159.5,111.19l0.73-.84a3.74,3.74,0,0,0,2.63,1.19c1.25,0,2-.63,2-1.56s-0.68-1.28-1.58-1.69l-1.37-.6a2.68,2.68,0,0,1-1.93-2.46,2.71,2.71,0,0,1,3-2.53,4,4,0,0,1,2.82,1.18l-0.65.79a3,3,0,0,0-2.17-.9,1.52,1.52,0,0,0-1.77,1.4c0,0.92.83,1.26,1.59,1.58l1.35,0.58a2.66,2.66,0,0,1,2,2.54c0,1.51-1.24,2.72-3.24,2.72A4.62,4.62,0,0,1,159.5,111.19Z"/><path class="cls-3" d="M168.25,102.89h2.84c1.93,0,3.27.65,3.27,2.33a2.09,2.09,0,0,1-1.4,2.08v0.06a2.2,2.2,0,0,1,1.95,2.28c0,1.88-1.48,2.79-3.62,2.79h-3v-9.54Zm2.62,4.06c1.63,0,2.3-.6,2.3-1.57s-0.76-1.53-2.24-1.53h-1.47v3.1h1.41Zm0.25,4.52c1.64,0,2.6-.6,2.6-1.88s-0.93-1.72-2.6-1.72h-1.66v3.59h1.66Z"/><path class="cls-3" d="M179,102.89h1.37l3.23,9.54h-1.29l-0.9-2.91H178L177,112.43h-1.24Zm-0.77,5.66h2.86l-0.45-1.45c-0.35-1.06-.65-2.11-1-3.21h-0.06c-0.29,1.11-.6,2.15-0.94,3.21Z"/><path class="cls-3" d="M185,108.49v-5.6h1.21v5.63c0,2.3,1,3,2.22,3s2.25-.73,2.25-3v-5.63h1.16v5.6c0,3.07-1.47,4.12-3.42,4.12S185,111.56,185,108.49Z"/><path class="cls-3" d="M197.08,110a3.43,3.43,0,0,1,1.88-2.75,5.13,5.13,0,0,1-.63-2.24,2.16,2.16,0,0,1,2.21-2.25,1.76,1.76,0,0,1,1.88,1.89c0,1.25-1.09,2-2.15,2.82a12.39,12.39,0,0,0,2.41,2.67,8.32,8.32,0,0,0,1.34-2.82h1.12a10.85,10.85,0,0,1-1.67,3.42,6.32,6.32,0,0,0,1.79.92l-0.32,1a7.51,7.51,0,0,1-2.2-1.09A4,4,0,0,1,200,112.6,2.67,2.67,0,0,1,197.08,110Zm4.86,0.92a14.05,14.05,0,0,1-2.5-2.84,2.51,2.51,0,0,0-1.19,1.85,1.76,1.76,0,0,0,1.88,1.76A2.79,2.79,0,0,0,201.93,110.87Zm-2.12-4.25c0.87-.58,1.63-1.16,1.63-2a0.91,0.91,0,0,0-.9-1,1.24,1.24,0,0,0-1.18,1.38A4,4,0,0,0,199.81,106.63Z"/><path class="cls-3" d="M210.25,102.89h1.45l1.83,5.09c0.23,0.66.45,1.34,0.68,2h0.06c0.23-.65.42-1.34,0.65-2l1.8-5.09h1.47v9.54h-1.13v-5.25c0-.84.1-2,0.16-2.82h-0.06l-0.76,2.17-1.8,4.94h-0.8l-1.8-4.94-0.76-2.17h-0.06c0.06,0.84.15,2,.15,2.82v5.25h-1.09v-9.54Z"/><path class="cls-3" d="M220.55,107.62c0-3.05,1.67-4.9,4.07-4.9s4.09,1.86,4.09,4.9-1.69,5-4.09,5S220.55,110.68,220.55,107.62Zm6.89,0c0-2.37-1.12-3.84-2.82-3.84s-2.82,1.47-2.82,3.84,1.12,3.93,2.82,3.93S227.45,110,227.45,107.62Zm-5-6.3a0.69,0.69,0,0,1,.71-0.71,0.68,0.68,0,0,1,.71.71,0.69,0.69,0,0,1-.71.71A0.7,0.7,0,0,1,222.41,101.32Zm3,0a0.68,0.68,0,0,1,.71-0.71,0.69,0.69,0,0,1,.71.71,0.7,0.7,0,0,1-.71.71A0.69,0.69,0,0,1,225.41,101.32Z"/><path class="cls-3" d="M231,102.89h2.84c1.93,0,3.27.65,3.27,2.33a2.09,2.09,0,0,1-1.4,2.08v0.06a2.2,2.2,0,0,1,1.95,2.28c0,1.88-1.48,2.79-3.62,2.79h-3v-9.54Zm2.62,4.06c1.63,0,2.3-.6,2.3-1.57s-0.76-1.53-2.24-1.53h-1.47v3.1h1.41Zm0.25,4.52c1.64,0,2.6-.6,2.6-1.88s-0.93-1.72-2.6-1.72h-1.66v3.59h1.66Z"/><path class="cls-3" d="M239.89,102.89h5.5v1h-4.29v3h3.62v1h-3.62v3.46h4.44v1h-5.64v-9.54Z"/><path class="cls-3" d="M247.82,102.89H249v8.51h4.17v1h-5.38v-9.54Z"/><path class="cls-3" d="M255.18,102.89h1.45l1.83,5.09c0.23,0.66.45,1.34,0.68,2h0.06c0.23-.65.42-1.34,0.65-2l1.8-5.09h1.47v9.54H262v-5.25c0-.84.1-2,0.16-2.82H262.1l-0.76,2.17-1.8,4.94h-0.8l-1.8-4.94-0.76-2.17h-0.06c0.06,0.84.15,2,.15,2.82v5.25h-1.09v-9.54Z"/><path class="cls-3" d="M268,102.89h1.37l3.23,9.54H271.3l-0.9-2.91h-3.48L266,112.43h-1.24Zm-0.77,5.66h2.87l-0.45-1.45c-0.35-1.06-.65-2.11-1-3.21h-0.06c-0.29,1.11-.6,2.15-0.95,3.21Z"/><path class="cls-3" d="M274.23,102.89h1.25l3.45,6,1,2H280c-0.06-1-.15-2-0.15-3v-4.93H281v9.54h-1.25l-3.46-6-1-2h-0.06c0.07,1,.16,2,0.16,3v5h-1.15v-9.54Z"/><path class="cls-3" d="M283.88,108.49v-5.6h1.21v5.63c0,2.3,1,3,2.23,3s2.25-.73,2.25-3v-5.63h1.16v5.6c0,3.07-1.47,4.12-3.42,4.12S283.88,111.56,283.88,108.49Z"/><path class="cls-3" d="M293.6,102.89h5.5v1H294.8v3.23h3.64v1H294.8v4.28H293.6v-9.54Z"/><path class="cls-3" d="M302.51,102.89h1.37l3.23,9.54h-1.29l-0.9-2.91h-3.48l-0.92,2.91h-1.24Zm-0.77,5.66h2.87l-0.45-1.45c-0.35-1.06-.65-2.11-1-3.21h-0.06c-0.29,1.11-.6,2.15-0.95,3.21Z"/><path class="cls-3" d="M308.74,102.89h1.21v4.78h0l4-4.78h1.37l-3,3.63,3.45,5.9h-1.35l-2.85-5-1.64,1.93v3h-1.21v-9.54Z"/><path class="cls-3" d="M319.17,103.91h-2.88v-1h7v1h-2.88v8.52h-1.22v-8.52Z"/><path class="cls-3" d="M325.21,108.49v-5.6h1.21v5.63c0,2.3,1,3,2.23,3s2.25-.73,2.25-3v-5.63h1.16v5.6c0,3.07-1.47,4.12-3.42,4.12S325.21,111.56,325.21,108.49Z"/><path class="cls-3" d="M334.92,102.89h3c1.95,0,3.34.7,3.34,2.68a2.6,2.6,0,0,1-2.15,2.7l2.43,4.16h-1.37l-2.3-4h-1.73v4h-1.21v-9.54Zm2.81,4.52c1.48,0,2.31-.61,2.31-1.85s-0.83-1.7-2.31-1.7h-1.6v3.55h1.6Z"/></svg>