<?xml version="1.0" encoding="utf-8"?>
<!-- Generator: Adobe Illustrator 19.1.0, SVG Export Plug-In . SVG Version: 6.00 Build 0)  -->
<svg version="1.1" id="Layer_1" xmlns="http://www.w3.org/2000/svg" xmlns:xlink="http://www.w3.org/1999/xlink" x="0px" y="0px"
	 viewBox="0 0 30.9 30.9" style="enable-background:new 0 0 30.9 30.9;" xml:space="preserve">
<style type="text/css">
	.st0{fill:#623636;}
</style>
<g>
	<path class="st0" d="M30.9,5.8v19.3c0,1.6-0.6,3-1.7,4.1s-2.5,1.7-4.1,1.7H5.8c-1.6,0-3-0.6-4.1-1.7S0,26.7,0,25.1V5.8
		c0-1.6,0.6-3,1.7-4.1C2.8,0.6,4.2,0,5.8,0h19.3c1.6,0,3,0.6,4.1,1.7C30.3,2.8,30.9,4.2,30.9,5.8z M10.9,25.7l10.9-10.9L16.1,9
		L5.1,19.9v5.8H10.9z M8.1,19.7l3.1,3.1l-1,1H9v-1.9H7.1v-1.1L8.1,19.7z M16.4,11.9c0.2,0.2,0.2,0.4-0.1,0.6l-5.8,5.8
		c-0.2,0.2-0.4,0.2-0.6,0.1C9.7,18.2,9.8,18,10,17.8l5.8-5.8C16.1,11.7,16.3,11.7,16.4,11.9z M23.1,13.5l1.8-1.8
		c0.4-0.4,0.6-0.8,0.6-1.4s-0.2-1-0.6-1.4l-3.1-3.1c-0.4-0.4-0.8-0.6-1.4-0.6s-1,0.2-1.4,0.6l-1.8,1.8L23.1,13.5z"/>
</g>
</svg>
