<svg style="display:none;">
    <!-- Bauschreinerei -->
    <symbol id="bauschreinerei" viewBox="-243 1130.9 48.9 48">
        <rect x="-237.3" y="1155.8" transform="matrix(-0.7071 -0.7071 0.7071 -0.7071 -1188.8208 1827.1116)" class="colGrey" width="42.6" height="8"/>
        <polygon class="colGrey" points="-239.5,1145.2 -243,1153.8 -242.3,1154.4 -234.4,1151.5 -226.3,1143.4 -221.8,1136.9 -226.5,1132.2 "/>
        <rect x="-232.5" y="1159" transform="matrix(-0.7071 -0.7071 0.7071 -0.7071 -1188.144 1828.5596)" class="colBG" width="34.2" height="2.8"/>
        <path class="colGrey" d="M-227.7,1131.7c0,0-0.7,0.7,0,1.4l5.8,5.8c0,0,0.7,0.7,1.4,0l0.4-0.4c0,0,0.7-0.7,0-1.4l-5.8-5.8
	c0,0-0.7-0.7-1.4,0L-227.7,1131.7z"/>
        <rect x="-233.3" y="1153.8" transform="matrix(0.7071 -0.7071 0.7071 0.7071 -882.389 185.2839)" class="colGrey" width="31.5" height="8"/>
        <path class="colGrey" d="M-196.5,1142.1c-1.6,1.6-3.6,2.4-5.6,2.4l-3.9-3.9l6-6c-2.8-0.8-5.9-0.1-8.1,2.1c-3.2,3.2-3.2,8.5,0,11.7
	c3.2,3.2,8.5,3.2,11.7,0c2.4-2.4,3-6,1.8-9C-195.1,1140.4-195.7,1141.3-196.5,1142.1z"/>
        <path class="colBG" d="M-202.1,1144.5c2-0.1,4.1-0.9,5.6-2.4c0.8-0.8,1.4-1.7,1.8-2.6c-0.4-1-1-1.9-1.8-2.7c-1-1-2.3-1.7-3.6-2.1l-6,6
	L-202.1,1144.5z"/>
        <path class="colGrey" d="M-224.6,1164.8c-3.2-3.2-8.5-3.2-11.7,0c-2.6,2.6-3.1,6.5-1.5,9.6c0.4-0.8,0.9-1.5,1.5-2.1
	c1.4-1.4,3.1-2.1,4.8-2.4l3.7,3.7l-5,5c2.8,0.8,6,0.1,8.1-2.1C-221.4,1173.3-221.4,1168-224.6,1164.8z"/>
        <path class="colBG" d="M-231.5,1169.9c-1.8,0.2-3.5,1-4.8,2.4c-0.6,0.6-1.1,1.4-1.5,2.1c0.4,0.8,0.9,1.5,1.5,2.1c1,1,2.2,1.7,3.6,2.1
	l5-5L-231.5,1169.9z"/>
        <rect x="-228.8" y="1155.1" transform="matrix(0.7071 -0.7071 0.7071 0.7071 -881.1487 185.783)" class="colBG" width="25" height="2.8"/>

    </symbol>
    <!-- Einbruchschutz -->
    <symbol id="einbruchschutz" viewBox="-244 1119.6 51 60.2">
        <path class="colGrey" d="M-229.7,1136.1v-1c0-10.1,9.4-10.5,10.5-10.5h2.4c10.1,0,10.5,9.4,10.5,10.5v1c0,1.1-0.1,2-0.3,2.9h5.1
	c0.1-0.9,0.2-1.9,0.2-2.9v-1c0-5.4-3.2-15.5-15.5-15.5h-2.4c-5.4,0-15.5,3.2-15.5,15.5v1c0,0.9,0.1,1.9,0.3,2.9h5.1
	C-229.7,1137.6-229.7,1136.5-229.7,1136.1z"/>
        <polygon class="colGrey" points="-201.5,1139 -206.6,1139 -229.3,1139 -234.4,1139 -244,1139 -244,1179.8 -193,1179.8 -193,1139 "/>
        <rect x="-238" y="1145" class="colBG" width="39.5" height="30"/>
        <path class="colGrey" d="M-212.4,1156.4c0-3.2-2.6-5.8-5.8-5.8c-3.2,0-5.8,2.6-5.8,5.8c0,2.3,1.3,4.2,3.2,5.2v9.7h5.1v-9.7
	C-213.8,1160.7-212.4,1158.8-212.4,1156.4z"/>
    </symbol>
    <!-- Innenausbau -->
    <symbol id="innenausbau" viewBox="-244 1139.4 66.4 40.8">
        <rect x="-244" y="1139.4" class="colGrey" width="66.4" height="40.8"/>
        <rect x="-224" y="1143.8" class="colBG" width="26.2" height="11.1"/>
        <rect x="-224" y="1160.1" class="colBG" width="26.2" height="15.1"/>
        <rect x="-192.9" y="1143.8" class="colBG" width="11" height="31.1"/>
        <rect x="-239.1" y="1143.1" class="colBG" width="11" height="7.7"/>
        <rect x="-239.1" y="1155" class="colBG" width="11" height="7.7"/>
        <rect x="-239.1" y="1167.4" class="colBG" width="11" height="7.7"/>
    </symbol>
    <!-- Reparaturen -->
    <symbol id="reparaturen" viewBox="-244 1137.5 52.7 42.3">
        <rect x="-244" y="1137.5" class="colGrey" width="52.7" height="42.3"/>
        <polygon class="colBG" points="-239.7,1142.6 -239.7,1175.9 -203.1,1175.9 -212.8,1166.4 -204.4,1158.4 -212.4,1150.1 -203.1,1142.6 
	"/>
        <polygon class="colBG" points="-205.6,1151.4 -198.9,1158.6 -206.7,1166.1 -196.8,1175.9 -196.8,1142.6 "/>
    </symbol>
    <!-- Insektenschutz -->
    <symbol id="insektenschutz" viewBox="-243 1127.1 53.4 57.9">
        <g>
            <g>
                <path class="colGrey" d="M-216.5,1185c9.4,0,17-11,17-24.5s-7.6-24.5-17-24.5s-17,11-17,24.5C-233.5,1174.1-225.9,1185-216.5,1185"/>
            </g>
        </g>
        <g>
            <g>
                <path class="colBG" d="M-205.3,1142.1c-2.6,2.7-6.8,4.5-11.6,4.5c-4.5,0-8.5-1.6-11.1-4c-1,1.3-1.8,2.7-2.6,4.3
			c2.9,2.4,6.8,4.1,11.2,4.5v33.3c0.9,0.2,1.9,0.4,2.9,0.4c0.7,0,1.4-0.1,2.1-0.2v-33.5c4.7-0.5,8.8-2.3,11.8-5
			C-203.4,1144.8-204.3,1143.4-205.3,1142.1z"/>
            </g>
        </g>
        <g>
            <g>
                <g>
                    <path class="colGrey" d="M-221.6,1133.8c0.8-1,1.1-2.3,0.7-3.6c-0.6-2.2-2.9-3.5-5.1-2.9s-3.5,2.9-2.9,5.1c0.4,1.2,1.3,2.2,2.4,2.7
				l1.8,7l4.8-1.3L-221.6,1133.8z"/>
                </g>
            </g>
            <g>
                <g>
                    <path class="colGrey" d="M-208.3,1127.2c-2.2-0.6-4.5,0.7-5.1,2.9c-0.4,1.3,0,2.6,0.7,3.6l-1.9,7.1l4.8,1.3l1.9-7
				c1.2-0.5,2.1-1.4,2.5-2.7C-204.8,1130.1-206.1,1127.8-208.3,1127.2z"/>
                </g>
            </g>
        </g>
        <g>
            <path class="colGrey" d="M-226.8,1165.3c0-1.4-1.1-2.5-2.5-2.5h-11.2c-1.4,0-2.5,1.1-2.5,2.5s1.1,2.5,2.5,2.5h11.2
		C-227.9,1167.8-226.8,1166.7-226.8,1165.3z"/>
            <path class="colGrey" d="M-227.8,1172.4l-10.5,3.9c-1.3,0.5-1.9,1.9-1.5,3.2c0.4,1,1.3,1.6,2.3,1.6c0.3,0,0.6-0.1,0.9-0.2l10.5-3.9
		c1.3-0.5,1.9-1.9,1.5-3.2C-225,1172.6-226.5,1171.9-227.8,1172.4z"/>
            <path class="colGrey" d="M-239.7,1154.2l10.5,3.9c0.3,0.1,0.6,0.2,0.9,0.2c1,0,2-0.6,2.3-1.6c0.5-1.3-0.2-2.7-1.5-3.2l-10.5-3.9
		c-1.3-0.5-2.7,0.2-3.2,1.5C-241.6,1152.3-241,1153.7-239.7,1154.2z"/>
            <path class="colGrey" d="M-192.1,1162.9h-11.2c-1.4,0-2.5,1.1-2.5,2.5s1.1,2.5,2.5,2.5h11.2c1.4,0,2.5-1.1,2.5-2.5
		S-190.7,1162.9-192.1,1162.9z"/>
            <path class="colGrey" d="M-194.3,1176.3l-10.5-3.9c-1.3-0.5-2.7,0.2-3.2,1.5c-0.5,1.3,0.2,2.7,1.5,3.2l10.5,3.9
		c0.3,0.1,0.6,0.2,0.9,0.2c1,0,2-0.6,2.3-1.6C-192.4,1178.2-193,1176.8-194.3,1176.3z"/>
            <path class="colGrey" d="M-204.3,1158.2c0.3,0,0.6-0.1,0.9-0.2l10.5-3.9c1.3-0.5,1.9-1.9,1.5-3.2c-0.5-1.3-1.9-1.9-3.2-1.5l-10.5,3.9
		c-1.3,0.5-1.9,1.9-1.5,3.2C-206.3,1157.6-205.3,1158.2-204.3,1158.2z"/>
        </g>
    </symbol>
    <!-- Contact -->
    <!-- phone -->
    <symbol id="phone" viewBox="-244 1051 128 128">
        <g>
            <path class="colRed" d="M-180,1179c35.3,0,64-28.7,64-64s-28.7-64-64-64s-64,28.7-64,64S-215.3,1179-180,1179"/>
            <path class="colBG" d="M-173.8,1148.7c-2.6,0-5.1-0.5-6.5-1.6l-0.3-0.3c-3-3.5-5.6-7.5-8.2-12.1c-2.5-4.7-4.6-9.5-6.2-14.3
		c-1.7-4.9-2.9-9.7-3.8-14.8c-0.8-4.8-1.1-9.5-1-14.5l0-0.6l0.4-0.5c1.9-2.1,7.3-4.8,9.6-5.9c7.8-3.8,8.9-3.2,9.5-2.8
		c1.5,0.8,2.6,2.4,3.7,5.4c1.3,3.7,1.6,6.8,0.8,9.1c-0.8,2.2-5.7,4.8-9.6,6.7l-0.2,0.1c-1.5,0.5-2,4.7,1.5,14.8
		c4.2,12.2,7,12.4,7.8,12.1l0.7-0.2c1.4-0.5,1.7-0.6,1.7-0.6l1.5-0.5c2.4-0.8,4.7-0.8,6.6,0.2c2.5,1.3,4.6,4,6,8.2
		c0.9,2.7,1.1,4.7,0.5,6.2c-0.3,1.5-1.6,2.8-4,3.8C-165.9,1147.8-170.1,1148.7-173.8,1148.7z M-178,1144.5c1.5,1,6,1,10.2,0
		c3.5-0.8,5-2,5.2-2.4l0-0.3l0.1-0.2c0.1-0.2,0.4-1.1-0.6-3.9c-1.1-3.3-2.5-5.3-4.2-6.2c-1.1-0.6-2.4-0.6-4,0l-1.5,0.5
		c0,0-0.3,0.1-1.7,0.6l-0.8,0.2c-5.8,1.9-9.7-7.2-12.1-14.3c-2.5-7.3-5.1-17.1,0.6-19.2c3.6-1.7,7.1-3.8,7.7-4.6
		c0.5-1.6,0.2-4-0.8-6.8c-0.7-2-1.3-2.9-1.8-3.3c-2.3,0.6-11.8,4.9-14.6,7.4c-0.1,4.5,0.3,8.8,1,13.2c0.8,4.9,2,9.5,3.6,14.2
		c1.6,4.6,3.6,9.3,6,13.7C-183.3,1137.4-180.7,1141.1-178,1144.5z"/>
        </g>
    </symbol>
    <!-- mail -->
    <symbol id="mail" viewBox="-244 1051 128 128">       
        <path class="colRed" d="M-180,1179c35.3,0,64-28.7,64-64s-28.7-64-64-64s-64,28.7-64,64S-215.3,1179-180,1179"/>
        <path class="colBG" d="M-149.7,1143.7h-60.5c-0.9,0-1.6-0.7-1.6-1.6v-35.5c0-0.9,0.7-1.6,1.6-1.6h60.5c0.9,0,1.6,0.7,1.6,1.6v35.5
	C-148.1,1143-148.8,1143.7-149.7,1143.7z M-208.6,1140.4h57.2v-32.2h-57.2V1140.4z"/>
        <path class="colBG" d="M-150.8,1107.6h-58.4c-0.7,0-1.3-0.4-1.5-1.1c-0.2-0.6,0-1.4,0.5-1.8l28.5-24c0.6-0.5,1.5-0.5,2.1,0l29.9,24
	c0.5,0.4,0.7,1.2,0.5,1.8S-150.1,1107.6-150.8,1107.6z M-204.7,1104.3h49.3l-25.2-20.3L-204.7,1104.3z"/>
        <path class="colBG" d="M-210,1143.6c-0.5,0-0.9-0.2-1.2-0.6c-0.6-0.7-0.5-1.7,0.2-2.3l30-25.7c0.6-0.5,1.5-0.5,2.1,0l30.4,25.5
	c0.7,0.6,0.8,1.6,0.2,2.3c-0.6,0.7-1.6,0.8-2.3,0.2l-29.3-24.6l-29,24.8C-209.3,1143.5-209.7,1143.6-210,1143.6z"/>
        <path class="colBG" d="M-190.3,1126.5c-0.4,0-0.8-0.1-1.1-0.4l-20.1-18c-0.7-0.6-0.7-1.6-0.1-2.3c0.6-0.7,1.6-0.7,2.3-0.1l20.1,18
	c0.7,0.6,0.7,1.6,0.1,2.3C-189.4,1126.3-189.9,1126.5-190.3,1126.5z"/>
        <path class="colBG" d="M-170.4,1125.1c-0.5,0-1-0.2-1.3-0.6c-0.6-0.7-0.4-1.7,0.3-2.3l20.8-16.6c0.7-0.6,1.7-0.4,2.3,0.3
	c0.6,0.7,0.4,1.7-0.3,2.3l-20.8,16.6C-169.7,1125-170,1125.1-170.4,1125.1z"/>
        <polygon class="colRed" points="-205.4,1111.1 -205.4,1096.8 -155.4,1096 -155.4,1111.5 -170.4,1124.5 -180.5,1115.8 -190.4,1124.3 "/>
        <path class="colBG" d="M-170.4,1126.2c-0.4,0-0.8-0.1-1.1-0.4l-9-7.9l-8.8,7.7c-0.6,0.5-1.5,0.5-2.1,0l-15-13.2
	c-0.4-0.3-0.6-0.8-0.6-1.2v-15.1c0-0.9,0.7-1.6,1.6-1.6h50c0.9,0,1.6,0.7,1.6,1.6v15.5c0,0.5-0.2,0.9-0.6,1.2l-15,13
	C-169.6,1126-170,1126.2-170.4,1126.2z M-180.5,1114.1c0.4,0,0.8,0.1,1.1,0.4l9,7.9l13.4-11.6v-13.1h-46.7v12.7l13.4,11.8l8.8-7.7
	C-181.3,1114.3-180.9,1114.1-180.5,1114.1z"/>
    </symbol>
    <!-- address -->
    <symbol id="address" viewBox="-244 1051 128 128">
        <g>
            <path class="colRed" d="M-180,1179c35.3,0,64-28.7,64-64s-28.7-64-64-64s-64,28.7-64,64S-215.3,1179-180,1179"/>
        </g>
        <path class="colBG" d="M-156.6,1140.5H-202c-1,0-1.8-0.8-1.8-1.8v-36.6c0-0.6,0.3-1.1,0.7-1.4l22.7-16.3c0.6-0.4,1.4-0.4,2,0
	l22.7,16.3c0.5,0.3,0.7,0.9,0.7,1.4v36.6C-154.8,1139.7-155.6,1140.5-156.6,1140.5z M-200.2,1137h41.9v-34l-21-15l-21,15V1137z"/>
    </symbol>
    
    
    
    
    
    <!-- Pfeile -->
    <!-- gross nach unten -->
    <symbol id="pfeil-xl" viewBox="-244 1176.9 29.3 15.9">
        <path class="colGrey" d="M-230.1,1192.6c-0.4-0.4-0.4-1,0-1.4l0,0c0.4-0.4,1-0.4,1.4,0l0,0c0.4,0.4,0.4,1,0,1.4l0,0
	c-0.2,0.2-0.5,0.3-0.7,0.3l0,0C-229.7,1192.8-229.9,1192.7-230.1,1192.6z"/>
        <path class="colGrey" d="M-227.4,1189.8c-0.4-0.4-0.4-1,0-1.4l0,0c0.4-0.4,1-0.4,1.4,0l0,0c0.4,0.4,0.4,1,0,1.4l0,0
	c-0.2,0.2-0.5,0.3-0.7,0.3l0,0C-226.9,1190.1-227.2,1190-227.4,1189.8z"/>
        <path class="colGrey" d="M-224.6,1187c-0.4-0.4-0.4-1,0-1.4l0,0c0.4-0.4,1-0.4,1.4,0l0,0c0.4,0.4,0.4,1,0,1.4l0,0
	c-0.2,0.2-0.5,0.3-0.7,0.3l0,0C-224.2,1187.3-224.4,1187.2-224.6,1187z"/>
        <path class="colGrey" d="M-221.9,1184.2c-0.4-0.4-0.4-1,0-1.4l0,0c0.4-0.4,1-0.4,1.4,0l0,0c0.4,0.4,0.4,1,0,1.4l0,0
	c-0.2,0.2-0.5,0.3-0.7,0.3l0,0C-221.4,1184.5-221.7,1184.4-221.9,1184.2z"/>
        <path class="colGrey" d="M-219.2,1181.4c-0.4-0.4-0.4-1,0-1.4l0,0c0.4-0.4,1-0.4,1.4,0l0,0c0.4,0.4,0.4,1,0,1.4l0,0
	c-0.2,0.2-0.5,0.3-0.7,0.3l0,0C-218.7,1181.7-219,1181.6-219.2,1181.4z"/>
        <path class="colGrey" d="M-216.4,1178.7c-0.4-0.4-0.4-1,0-1.4l0,0c0.4-0.4,1-0.4,1.4,0l0,0c0.4,0.4,0.4,1,0,1.4l0,0
	c-0.2,0.2-0.5,0.3-0.7,0.3l0,0C-216,1179-216.2,1178.9-216.4,1178.7z"/>
        <path class="colGrey" d="M-232.8,1189.8c-0.4-0.4-0.4-1,0-1.4l0,0c0.4-0.4,1-0.4,1.4,0l0,0c0.4,0.4,0.4,1,0,1.4l0,0
	c-0.2,0.2-0.4,0.3-0.7,0.3l0,0C-232.3,1190.1-232.6,1190-232.8,1189.8z"/>
        <path class="colGrey" d="M-235.5,1187c-0.4-0.4-0.4-1,0-1.4l0,0c0.4-0.4,1-0.4,1.4,0l0,0c0.4,0.4,0.4,1,0,1.4l0,0
	c-0.2,0.2-0.5,0.3-0.7,0.3l0,0C-235,1187.3-235.3,1187.2-235.5,1187z"/>
        <path class="colGrey" d="M-238.2,1184.2c-0.4-0.4-0.4-1,0-1.4l0,0c0.4-0.4,1-0.4,1.4,0l0,0c0.4,0.4,0.4,1,0,1.4l0,0
	c-0.2,0.2-0.4,0.3-0.7,0.3l0,0C-237.8,1184.5-238,1184.4-238.2,1184.2z"/>
        <path class="colGrey" d="M-241,1181.4c-0.4-0.4-0.4-1,0-1.4l0,0c0.4-0.4,1-0.4,1.4,0l0,0c0.4,0.4,0.4,1,0,1.4l0,0
	c-0.2,0.2-0.4,0.3-0.7,0.3l0,0C-240.5,1181.7-240.8,1181.6-241,1181.4z"/>
        <path class="colGrey" d="M-243.7,1178.6c-0.4-0.4-0.4-1,0-1.4l0,0c0.4-0.4,1-0.4,1.4,0l0,0c0.4,0.4,0.4,1,0,1.4l0,0
	c-0.2,0.2-0.5,0.3-0.7,0.3l0,0C-243.3,1178.9-243.5,1178.8-243.7,1178.6z"/>
    </symbol>
    
    <!-- klein nach unten -->
    <symbol id="pfeil-xs" viewBox="-643.5 1770.1 18.3 10.4">
        <path class="colGrey" d="M-635.1,1780.2c-0.4-0.4-0.4-1,0-1.4l0,0c0.4-0.4,1-0.4,1.4,0l0,0c0.4,0.4,0.4,1,0,1.4l0,0
	c-0.2,0.2-0.5,0.3-0.7,0.3l0,0C-634.7,1780.5-634.9,1780.3-635.1,1780.2z"/>
        <path class="colGrey" d="M-632.4,1777.5c-0.4-0.4-0.4-1,0-1.4l0,0c0.4-0.4,1-0.4,1.4,0l0,0c0.4,0.4,0.4,1,0,1.4l0,0
	c-0.2,0.2-0.5,0.3-0.7,0.3l0,0C-631.9,1777.8-632.2,1777.7-632.4,1777.5z"/>
        <path class="colGrey" d="M-629.6,1774.7c-0.4-0.4-0.4-1,0-1.4l0,0c0.4-0.4,1-0.4,1.4,0l0,0c0.4,0.4,0.4,1,0,1.4l0,0
	c-0.2,0.2-0.5,0.3-0.7,0.3l0,0C-629.2,1775-629.4,1774.8-629.6,1774.7z"/>
        <path class="colGrey" d="M-626.9,1771.8c-0.4-0.4-0.4-1,0-1.4l0,0c0.4-0.4,1-0.4,1.4,0l0,0c0.4,0.4,0.4,1,0,1.4l0,0
	c-0.2,0.2-0.5,0.3-0.7,0.3l0,0C-626.4,1772.2-626.7,1772.1-626.9,1771.8z"/>
        <path class="colGrey" d="M-637.8,1777.5c-0.4-0.4-0.4-1,0-1.4l0,0c0.4-0.4,1-0.4,1.4,0l0,0c0.4,0.4,0.4,1,0,1.4l0,0
	c-0.2,0.2-0.4,0.3-0.7,0.3l0,0C-637.3,1777.8-637.6,1777.7-637.8,1777.5z"/>
        <path class="colGrey" d="M-640.5,1774.7c-0.4-0.4-0.4-1,0-1.4l0,0c0.4-0.4,1-0.4,1.4,0l0,0c0.4,0.4,0.4,1,0,1.4l0,0
	c-0.2,0.2-0.5,0.3-0.7,0.3l0,0C-640,1775-640.3,1774.8-640.5,1774.7z"/>
        <path class="colGrey" d="M-643.2,1771.8c-0.4-0.4-0.4-1,0-1.4l0,0c0.4-0.4,1-0.4,1.4,0l0,0c0.4,0.4,0.4,1,0,1.4l0,0
	c-0.2,0.2-0.4,0.3-0.7,0.3l0,0C-642.8,1772.2-643,1772.1-643.2,1771.8z"/>
    </symbol>
    
    <!-- gepunktete Linie -->
    <symbol id="dotted-line" viewBox="-316 590.7 208.1 3">
        <circle class="colBG" cx="-314.5" cy="592.2" r="1.5"/>
        <circle class="colBG" cx="-308.5" cy="592.2" r="1.5"/>
        <circle class="colBG" cx="-302.4" cy="592.2" r="1.5"/>
        <circle class="colBG" cx="-296.4" cy="592.2" r="1.5"/>
        <circle class="colBG" cx="-290.4" cy="592.2" r="1.5"/>
        <circle class="colBG" cx="-284.3" cy="592.2" r="1.5"/>
        <circle class="colBG" cx="-278.3" cy="592.2" r="1.5"/>
        <circle class="colBG" cx="-272.3" cy="592.2" r="1.5"/>
        <circle class="colBG" cx="-266.2" cy="592.2" r="1.5"/>
        <circle class="colBG" cx="-260.2" cy="592.2" r="1.5"/>
        <circle class="colBG" cx="-254.2" cy="592.2" r="1.5"/>
        <circle class="colBG" cx="-248.1" cy="592.2" r="1.5"/>
        <circle class="colBG" cx="-242.1" cy="592.2" r="1.5"/>
        <circle class="colBG" cx="-236.1" cy="592.2" r="1.5"/>
        <circle class="colBG" cx="-230" cy="592.2" r="1.5"/>
        <circle class="colBG" cx="-224" cy="592.2" r="1.5"/>
        <circle class="colBG" cx="-218" cy="592.2" r="1.5"/>
        <circle class="colBG" cx="-211.9" cy="592.2" r="1.5"/>
        <circle class="colBG" cx="-205.9" cy="592.2" r="1.5"/>
        <circle class="colBG" cx="-199.9" cy="592.2" r="1.5"/>
        <circle class="colBG" cx="-193.9" cy="592.2" r="1.5"/>
        <circle class="colBG" cx="-187.8" cy="592.2" r="1.5"/>
        <circle class="colBG" cx="-181.8" cy="592.2" r="1.5"/>
        <circle class="colBG" cx="-175.8" cy="592.2" r="1.5"/>
        <circle class="colBG" cx="-169.7" cy="592.2" r="1.5"/>
        <circle class="colBG" cx="-163.7" cy="592.2" r="1.5"/>
        <circle class="colBG" cx="-157.7" cy="592.2" r="1.5"/>
        <circle class="colBG" cx="-151.6" cy="592.2" r="1.5"/>
        <circle class="colBG" cx="-145.6" cy="592.2" r="1.5"/>
        <circle class="colBG" cx="-139.6" cy="592.2" r="1.5"/>
        <circle class="colBG" cx="-133.5" cy="592.2" r="1.5"/>
        <circle class="colBG" cx="-127.5" cy="592.2" r="1.5"/>
        <circle class="colBG" cx="-121.5" cy="592.2" r="1.5"/>
        <circle class="colBG" cx="-115.4" cy="592.2" r="1.5"/>
        <circle class="colBG" cx="-109.4" cy="592.2" r="1.5"/>
    </symbol>
</svg>