<svg style="display:none;">
    <!-- Logo -->
    <symbol id="logo" viewBox="0 0 520.6 171.3">
<path class="colDarkGrey" d="M7,104.3h12.6c1.5,0,2.5-0.3,2.5-1.7c0-1.6-1-1.9-2.5-1.9H7V104.3L7,104.3z M7,96h12.5c1.3,0,2.1-0.5,2.1-1.8
	c0-1.3-0.8-1.8-2.1-1.8H7V96L7,96z M0,86.9h20.3c5.6,0,8.3,1.5,8.3,6c0,3.9-1.4,4.7-3.4,5.3v0.1c3.1,0.4,4.2,2,4.2,5.5
	c0,5-3,6.1-7,6.1H0V86.9L0,86.9z"/>
<polygon class="colDarkGrey" points="40,86.9 65.1,86.9 65.1,92.2 47,92.2 47,95.9 64.2,95.9 64.2,100.6 47,100.6 47,104.3 65.5,104.3 
	65.5,109.8 40,109.8 40,86.9 "/>
<path class="colDarkGrey" d="M75.6,94.9c0-6.7,3.8-8.3,10.1-8.3H94c10,0,11.3,2.2,11.3,8.7h-7v-0.6c0-1.6-1.2-2.1-3.3-2.1h-7.7
	c-3.7,0-4.4,1.7-4.4,4.6v2.5c0,3.3,0.7,4.6,4,4.6h7.5c3.2,0,4.1-0.3,4.1-3.2h7v2.2c0,3.9-1.4,6.9-8.5,6.9H85.7
	c-6.3,0-10.1-1.6-10.1-8.3V94.9L75.6,94.9z"/>
<polygon class="colDarkGrey" points="116.1,86.9 123.1,86.9 123.1,95 138,95 138,86.9 145,86.9 145,109.8 138,109.8 138,101.1 123.1,101.1 
	123.1,109.8 116.1,109.8 116.1,86.9 "/>
<polygon class="colDarkGrey" points="156.1,86.9 163.1,86.9 163.1,95 178,95 178,86.9 185,86.9 185,109.8 178,109.8 178,101.1 163.1,101.1 
	163.1,109.8 156.1,109.8 156.1,86.9 "/>
<path class="colDarkGrey" d="M202.8,99.6c0,3.3,0.7,4.6,4,4.6h9c3.3,0,4-1.3,4-4.6v-2.5c0-2.9-0.7-4.6-4.4-4.6h-8.2c-3.7,0-4.4,1.7-4.4,4.6
	V99.6L202.8,99.6z M195.6,94.9c0-6.7,3.8-8.3,10.1-8.3H217c6.3,0,10.1,1.6,10.1,8.3v6.8c0,6.7-3.8,8.3-10.1,8.3h-11.3
	c-6.3,0-10.1-1.6-10.1-8.3V94.9L195.6,94.9z"/>
<polygon class="colDarkGrey" points="237.7,86.9 244.7,86.9 244.7,103.9 260.5,103.9 260.5,109.8 237.7,109.8 237.7,86.9 "/>
<path class="colDarkGrey" d="M277.1,103.9h12.5c3,0,4.2-0.9,4.2-4.1v-3.1c0-3.3-1.2-4.1-4.2-4.1h-12.5V103.9L277.1,103.9z M270.1,86.9h21.2
	c7,0,9.5,2.3,9.5,8v7c0,5.7-2.5,8-9.5,8h-21.2V86.9L270.1,86.9z"/>
<path class="colDarkRed" d="M314.2,114.6c-4.9,0-8.8,3.9-8.8,8.8c0,4.9,3.9,8.8,8.8,8.8c4.9,0,8.8-3.9,8.8-8.8
	C323.1,118.5,319.1,114.6,314.2,114.6"/>
<g>
	<path class="colDarkRed" d="M457,134.3h-5v2.5h5.3c0.9,0,1.2-0.3,1.2-1.1v-0.3C458.5,134.5,458,134.3,457,134.3"/>
	<path class="colDarkRed" d="M330,122.5c-0.4-7.9-6.6-14.3-14.5-14.9V0h-2.2v107.6c-8,0.5-14.4,6.9-14.8,14.9H127v2.2h171.5
		c0.6,7.8,7,13.9,14.8,14.4v32.2h2.2v-20.9h205.1v-27.8H330L330,122.5z M314.2,137c-7.5,0-13.6-6.1-13.6-13.6
		c0-7.5,6.1-13.6,13.6-13.6c7.5,0,13.6,6.1,13.6,13.6C327.8,130.9,321.7,137,314.2,137 M351.2,134.3h-4.5v7.8h-3.2v-7.8H339v-2.6
		h12.1V134.3L351.2,134.3z M358.8,142.1h-3.2v-10.4h3.2V142.1L358.8,142.1z M371.7,142.3h-3.9c-2.9,0-4.1-0.5-4.1-2.8v-0.7h3.2
		c0,1.1,0.5,1.2,1.4,1.2h3.9c0.7,0,1.4-0.1,1.4-0.9c0-0.9-0.4-1-4.5-1c-4.8,0-5.3-0.6-5.3-3.1c0-1.9,0.2-3.3,4.2-3.3h4.4
		c3.7,0,4,1.2,4,3.1v0.3h-3.2c0-0.8-0.1-1.1-1.5-1.1h-3.5c-0.7,0-1.2,0.2-1.2,0.8c0,0.9,0.4,0.9,3.8,0.9c5,0,6.1,0.3,6.1,3.3
		C376.9,141.8,375.9,142.3,371.7,142.3 M395,139.1c0,1.7-0.6,3.1-3.8,3.1h-5.1c-2.9,0-4.6-0.7-4.6-3.8v-3.1c0-3,1.7-3.8,4.6-3.8h3.7
		c4.5,0,5.1,1,5.1,3.9h-3.2v-0.3c0-0.8-0.5-1-1.5-1h-3.5c-1.7,0-2,0.8-2,2.1v1.1c0,1.5,0.3,2.1,1.8,2.1h3.4c1.4,0,1.9-0.1,1.9-1.4
		h3.2V139.1L395,139.1z M412.9,142.1h-3.2v-3.9H403v3.9h-3.2v-10.4h3.2v3.7h6.7v-3.7h3.2V142.1L412.9,142.1z M428.3,142.1h-10.3
		v-10.4h3.2v7.7h7.2V142.1L428.3,142.1z M444.1,142.1h-11.5v-10.4h11.4v2.4h-8.2v1.7h7.8v2.2h-7.8v1.7h8.4V142.1L444.1,142.1z
		 M461.6,135.5c0,1.4-0.3,2.2-1.8,2.6v0c0.9,0.2,1.7,0.6,1.7,2.3v1.8h-3.2v-1.2c0-1.1-0.3-1.4-1.3-1.4h-5v2.7h-3.2v-10.4h9.6
		c2.5,0,3.1,1.2,3.1,3.1V135.5L461.6,135.5z M478.1,142.1h-11.6v-10.4H478v2.4h-8.2v1.7h7.8v2.2h-7.8v1.7h8.4V142.1L478.1,142.1z
		 M486.3,142.1h-3.2v-10.4h3.2V142.1L486.3,142.1z"/>
</g>
</symbol>

    <!-- Contact -->
    <!-- phone -->
    <symbol id="phone" viewBox="-244 1051 128 128">
        <g>
            <path class="colRed" d="M-180,1179c35.3,0,64-28.7,64-64s-28.7-64-64-64s-64,28.7-64,64S-215.3,1179-180,1179"/>
            <path class="colBG" d="M-173.8,1148.7c-2.6,0-5.1-0.5-6.5-1.6l-0.3-0.3c-3-3.5-5.6-7.5-8.2-12.1c-2.5-4.7-4.6-9.5-6.2-14.3
		c-1.7-4.9-2.9-9.7-3.8-14.8c-0.8-4.8-1.1-9.5-1-14.5l0-0.6l0.4-0.5c1.9-2.1,7.3-4.8,9.6-5.9c7.8-3.8,8.9-3.2,9.5-2.8
		c1.5,0.8,2.6,2.4,3.7,5.4c1.3,3.7,1.6,6.8,0.8,9.1c-0.8,2.2-5.7,4.8-9.6,6.7l-0.2,0.1c-1.5,0.5-2,4.7,1.5,14.8
		c4.2,12.2,7,12.4,7.8,12.1l0.7-0.2c1.4-0.5,1.7-0.6,1.7-0.6l1.5-0.5c2.4-0.8,4.7-0.8,6.6,0.2c2.5,1.3,4.6,4,6,8.2
		c0.9,2.7,1.1,4.7,0.5,6.2c-0.3,1.5-1.6,2.8-4,3.8C-165.9,1147.8-170.1,1148.7-173.8,1148.7z M-178,1144.5c1.5,1,6,1,10.2,0
		c3.5-0.8,5-2,5.2-2.4l0-0.3l0.1-0.2c0.1-0.2,0.4-1.1-0.6-3.9c-1.1-3.3-2.5-5.3-4.2-6.2c-1.1-0.6-2.4-0.6-4,0l-1.5,0.5
		c0,0-0.3,0.1-1.7,0.6l-0.8,0.2c-5.8,1.9-9.7-7.2-12.1-14.3c-2.5-7.3-5.1-17.1,0.6-19.2c3.6-1.7,7.1-3.8,7.7-4.6
		c0.5-1.6,0.2-4-0.8-6.8c-0.7-2-1.3-2.9-1.8-3.3c-2.3,0.6-11.8,4.9-14.6,7.4c-0.1,4.5,0.3,8.8,1,13.2c0.8,4.9,2,9.5,3.6,14.2
		c1.6,4.6,3.6,9.3,6,13.7C-183.3,1137.4-180.7,1141.1-178,1144.5z"/>
        </g>
    </symbol>
    <!-- mail -->
    <symbol id="mail" viewBox="-244 1051 128 128">       
        <path class="colRed" d="M-180,1179c35.3,0,64-28.7,64-64s-28.7-64-64-64s-64,28.7-64,64S-215.3,1179-180,1179"/>
        <path class="colBG" d="M-149.7,1143.7h-60.5c-0.9,0-1.6-0.7-1.6-1.6v-35.5c0-0.9,0.7-1.6,1.6-1.6h60.5c0.9,0,1.6,0.7,1.6,1.6v35.5
	C-148.1,1143-148.8,1143.7-149.7,1143.7z M-208.6,1140.4h57.2v-32.2h-57.2V1140.4z"/>
        <path class="colBG" d="M-150.8,1107.6h-58.4c-0.7,0-1.3-0.4-1.5-1.1c-0.2-0.6,0-1.4,0.5-1.8l28.5-24c0.6-0.5,1.5-0.5,2.1,0l29.9,24
	c0.5,0.4,0.7,1.2,0.5,1.8S-150.1,1107.6-150.8,1107.6z M-204.7,1104.3h49.3l-25.2-20.3L-204.7,1104.3z"/>
        <path class="colBG" d="M-210,1143.6c-0.5,0-0.9-0.2-1.2-0.6c-0.6-0.7-0.5-1.7,0.2-2.3l30-25.7c0.6-0.5,1.5-0.5,2.1,0l30.4,25.5
	c0.7,0.6,0.8,1.6,0.2,2.3c-0.6,0.7-1.6,0.8-2.3,0.2l-29.3-24.6l-29,24.8C-209.3,1143.5-209.7,1143.6-210,1143.6z"/>
        <path class="colBG" d="M-190.3,1126.5c-0.4,0-0.8-0.1-1.1-0.4l-20.1-18c-0.7-0.6-0.7-1.6-0.1-2.3c0.6-0.7,1.6-0.7,2.3-0.1l20.1,18
	c0.7,0.6,0.7,1.6,0.1,2.3C-189.4,1126.3-189.9,1126.5-190.3,1126.5z"/>
        <path class="colBG" d="M-170.4,1125.1c-0.5,0-1-0.2-1.3-0.6c-0.6-0.7-0.4-1.7,0.3-2.3l20.8-16.6c0.7-0.6,1.7-0.4,2.3,0.3
	c0.6,0.7,0.4,1.7-0.3,2.3l-20.8,16.6C-169.7,1125-170,1125.1-170.4,1125.1z"/>
        <polygon class="colRed" points="-205.4,1111.1 -205.4,1096.8 -155.4,1096 -155.4,1111.5 -170.4,1124.5 -180.5,1115.8 -190.4,1124.3 "/>
        <path class="colBG" d="M-170.4,1126.2c-0.4,0-0.8-0.1-1.1-0.4l-9-7.9l-8.8,7.7c-0.6,0.5-1.5,0.5-2.1,0l-15-13.2
	c-0.4-0.3-0.6-0.8-0.6-1.2v-15.1c0-0.9,0.7-1.6,1.6-1.6h50c0.9,0,1.6,0.7,1.6,1.6v15.5c0,0.5-0.2,0.9-0.6,1.2l-15,13
	C-169.6,1126-170,1126.2-170.4,1126.2z M-180.5,1114.1c0.4,0,0.8,0.1,1.1,0.4l9,7.9l13.4-11.6v-13.1h-46.7v12.7l13.4,11.8l8.8-7.7
	C-181.3,1114.3-180.9,1114.1-180.5,1114.1z"/>
    </symbol>
    <!-- address -->
    <symbol id="address" viewBox="-244 1051 128 128">
        <g>
            <path class="colRed" d="M-180,1179c35.3,0,64-28.7,64-64s-28.7-64-64-64s-64,28.7-64,64S-215.3,1179-180,1179"/>
        </g>
        <path class="colBG" d="M-156.6,1140.5H-202c-1,0-1.8-0.8-1.8-1.8v-36.6c0-0.6,0.3-1.1,0.7-1.4l22.7-16.3c0.6-0.4,1.4-0.4,2,0
	l22.7,16.3c0.5,0.3,0.7,0.9,0.7,1.4v36.6C-154.8,1139.7-155.6,1140.5-156.6,1140.5z M-200.2,1137h41.9v-34l-21-15l-21,15V1137z"/>
    </symbol>
    
    
    
    
    
    <!-- Pfeile -->
    <!-- gross nach unten -->
    <symbol id="pfeil-xl" viewBox="-244 1176.9 29.3 15.9">
        <path class="colGrey" d="M-230.1,1192.6c-0.4-0.4-0.4-1,0-1.4l0,0c0.4-0.4,1-0.4,1.4,0l0,0c0.4,0.4,0.4,1,0,1.4l0,0
	c-0.2,0.2-0.5,0.3-0.7,0.3l0,0C-229.7,1192.8-229.9,1192.7-230.1,1192.6z"/>
        <path class="colGrey" d="M-227.4,1189.8c-0.4-0.4-0.4-1,0-1.4l0,0c0.4-0.4,1-0.4,1.4,0l0,0c0.4,0.4,0.4,1,0,1.4l0,0
	c-0.2,0.2-0.5,0.3-0.7,0.3l0,0C-226.9,1190.1-227.2,1190-227.4,1189.8z"/>
        <path class="colGrey" d="M-224.6,1187c-0.4-0.4-0.4-1,0-1.4l0,0c0.4-0.4,1-0.4,1.4,0l0,0c0.4,0.4,0.4,1,0,1.4l0,0
	c-0.2,0.2-0.5,0.3-0.7,0.3l0,0C-224.2,1187.3-224.4,1187.2-224.6,1187z"/>
        <path class="colGrey" d="M-221.9,1184.2c-0.4-0.4-0.4-1,0-1.4l0,0c0.4-0.4,1-0.4,1.4,0l0,0c0.4,0.4,0.4,1,0,1.4l0,0
	c-0.2,0.2-0.5,0.3-0.7,0.3l0,0C-221.4,1184.5-221.7,1184.4-221.9,1184.2z"/>
        <path class="colGrey" d="M-219.2,1181.4c-0.4-0.4-0.4-1,0-1.4l0,0c0.4-0.4,1-0.4,1.4,0l0,0c0.4,0.4,0.4,1,0,1.4l0,0
	c-0.2,0.2-0.5,0.3-0.7,0.3l0,0C-218.7,1181.7-219,1181.6-219.2,1181.4z"/>
        <path class="colGrey" d="M-216.4,1178.7c-0.4-0.4-0.4-1,0-1.4l0,0c0.4-0.4,1-0.4,1.4,0l0,0c0.4,0.4,0.4,1,0,1.4l0,0
	c-0.2,0.2-0.5,0.3-0.7,0.3l0,0C-216,1179-216.2,1178.9-216.4,1178.7z"/>
        <path class="colGrey" d="M-232.8,1189.8c-0.4-0.4-0.4-1,0-1.4l0,0c0.4-0.4,1-0.4,1.4,0l0,0c0.4,0.4,0.4,1,0,1.4l0,0
	c-0.2,0.2-0.4,0.3-0.7,0.3l0,0C-232.3,1190.1-232.6,1190-232.8,1189.8z"/>
        <path class="colGrey" d="M-235.5,1187c-0.4-0.4-0.4-1,0-1.4l0,0c0.4-0.4,1-0.4,1.4,0l0,0c0.4,0.4,0.4,1,0,1.4l0,0
	c-0.2,0.2-0.5,0.3-0.7,0.3l0,0C-235,1187.3-235.3,1187.2-235.5,1187z"/>
        <path class="colGrey" d="M-238.2,1184.2c-0.4-0.4-0.4-1,0-1.4l0,0c0.4-0.4,1-0.4,1.4,0l0,0c0.4,0.4,0.4,1,0,1.4l0,0
	c-0.2,0.2-0.4,0.3-0.7,0.3l0,0C-237.8,1184.5-238,1184.4-238.2,1184.2z"/>
        <path class="colGrey" d="M-241,1181.4c-0.4-0.4-0.4-1,0-1.4l0,0c0.4-0.4,1-0.4,1.4,0l0,0c0.4,0.4,0.4,1,0,1.4l0,0
	c-0.2,0.2-0.4,0.3-0.7,0.3l0,0C-240.5,1181.7-240.8,1181.6-241,1181.4z"/>
        <path class="colGrey" d="M-243.7,1178.6c-0.4-0.4-0.4-1,0-1.4l0,0c0.4-0.4,1-0.4,1.4,0l0,0c0.4,0.4,0.4,1,0,1.4l0,0
	c-0.2,0.2-0.5,0.3-0.7,0.3l0,0C-243.3,1178.9-243.5,1178.8-243.7,1178.6z"/>
    </symbol>
    
    <!-- klein nach unten -->
    <symbol id="pfeil-xs" viewBox="-643.5 1770.1 18.3 10.4">
        <path class="colGrey" d="M-635.1,1780.2c-0.4-0.4-0.4-1,0-1.4l0,0c0.4-0.4,1-0.4,1.4,0l0,0c0.4,0.4,0.4,1,0,1.4l0,0
	c-0.2,0.2-0.5,0.3-0.7,0.3l0,0C-634.7,1780.5-634.9,1780.3-635.1,1780.2z"/>
        <path class="colGrey" d="M-632.4,1777.5c-0.4-0.4-0.4-1,0-1.4l0,0c0.4-0.4,1-0.4,1.4,0l0,0c0.4,0.4,0.4,1,0,1.4l0,0
	c-0.2,0.2-0.5,0.3-0.7,0.3l0,0C-631.9,1777.8-632.2,1777.7-632.4,1777.5z"/>
        <path class="colGrey" d="M-629.6,1774.7c-0.4-0.4-0.4-1,0-1.4l0,0c0.4-0.4,1-0.4,1.4,0l0,0c0.4,0.4,0.4,1,0,1.4l0,0
	c-0.2,0.2-0.5,0.3-0.7,0.3l0,0C-629.2,1775-629.4,1774.8-629.6,1774.7z"/>
        <path class="colGrey" d="M-626.9,1771.8c-0.4-0.4-0.4-1,0-1.4l0,0c0.4-0.4,1-0.4,1.4,0l0,0c0.4,0.4,0.4,1,0,1.4l0,0
	c-0.2,0.2-0.5,0.3-0.7,0.3l0,0C-626.4,1772.2-626.7,1772.1-626.9,1771.8z"/>
        <path class="colGrey" d="M-637.8,1777.5c-0.4-0.4-0.4-1,0-1.4l0,0c0.4-0.4,1-0.4,1.4,0l0,0c0.4,0.4,0.4,1,0,1.4l0,0
	c-0.2,0.2-0.4,0.3-0.7,0.3l0,0C-637.3,1777.8-637.6,1777.7-637.8,1777.5z"/>
        <path class="colGrey" d="M-640.5,1774.7c-0.4-0.4-0.4-1,0-1.4l0,0c0.4-0.4,1-0.4,1.4,0l0,0c0.4,0.4,0.4,1,0,1.4l0,0
	c-0.2,0.2-0.5,0.3-0.7,0.3l0,0C-640,1775-640.3,1774.8-640.5,1774.7z"/>
        <path class="colGrey" d="M-643.2,1771.8c-0.4-0.4-0.4-1,0-1.4l0,0c0.4-0.4,1-0.4,1.4,0l0,0c0.4,0.4,0.4,1,0,1.4l0,0
	c-0.2,0.2-0.4,0.3-0.7,0.3l0,0C-642.8,1772.2-643,1772.1-643.2,1771.8z"/>
    </symbol>
    
    <!-- gepunktete Linie -->
    <symbol id="dotted-line" viewBox="-316 590.7 208.1 3">
        <circle class="colBG" cx="-314.5" cy="592.2" r="1.5"/>
        <circle class="colBG" cx="-308.5" cy="592.2" r="1.5"/>
        <circle class="colBG" cx="-302.4" cy="592.2" r="1.5"/>
        <circle class="colBG" cx="-296.4" cy="592.2" r="1.5"/>
        <circle class="colBG" cx="-290.4" cy="592.2" r="1.5"/>
        <circle class="colBG" cx="-284.3" cy="592.2" r="1.5"/>
        <circle class="colBG" cx="-278.3" cy="592.2" r="1.5"/>
        <circle class="colBG" cx="-272.3" cy="592.2" r="1.5"/>
        <circle class="colBG" cx="-266.2" cy="592.2" r="1.5"/>
        <circle class="colBG" cx="-260.2" cy="592.2" r="1.5"/>
        <circle class="colBG" cx="-254.2" cy="592.2" r="1.5"/>
        <circle class="colBG" cx="-248.1" cy="592.2" r="1.5"/>
        <circle class="colBG" cx="-242.1" cy="592.2" r="1.5"/>
        <circle class="colBG" cx="-236.1" cy="592.2" r="1.5"/>
        <circle class="colBG" cx="-230" cy="592.2" r="1.5"/>
        <circle class="colBG" cx="-224" cy="592.2" r="1.5"/>
        <circle class="colBG" cx="-218" cy="592.2" r="1.5"/>
        <circle class="colBG" cx="-211.9" cy="592.2" r="1.5"/>
        <circle class="colBG" cx="-205.9" cy="592.2" r="1.5"/>
        <circle class="colBG" cx="-199.9" cy="592.2" r="1.5"/>
        <circle class="colBG" cx="-193.9" cy="592.2" r="1.5"/>
        <circle class="colBG" cx="-187.8" cy="592.2" r="1.5"/>
        <circle class="colBG" cx="-181.8" cy="592.2" r="1.5"/>
        <circle class="colBG" cx="-175.8" cy="592.2" r="1.5"/>
        <circle class="colBG" cx="-169.7" cy="592.2" r="1.5"/>
        <circle class="colBG" cx="-163.7" cy="592.2" r="1.5"/>
        <circle class="colBG" cx="-157.7" cy="592.2" r="1.5"/>
        <circle class="colBG" cx="-151.6" cy="592.2" r="1.5"/>
        <circle class="colBG" cx="-145.6" cy="592.2" r="1.5"/>
        <circle class="colBG" cx="-139.6" cy="592.2" r="1.5"/>
        <circle class="colBG" cx="-133.5" cy="592.2" r="1.5"/>
        <circle class="colBG" cx="-127.5" cy="592.2" r="1.5"/>
        <circle class="colBG" cx="-121.5" cy="592.2" r="1.5"/>
        <circle class="colBG" cx="-115.4" cy="592.2" r="1.5"/>
        <circle class="colBG" cx="-109.4" cy="592.2" r="1.5"/>
    </symbol>
</svg>